<mxfile host="65bd71144e">
    <diagram id="C5RBs43oDa-KdzZeNtuy" name="Page-1">
        <mxGraphModel dx="1573" dy="568" grid="1" gridSize="10" guides="1" tooltips="1" connect="1" arrows="1" fold="1" page="1" pageScale="1" pageWidth="827" pageHeight="1169" math="0" shadow="0">
            <root>
                <mxCell id="WIyWlLk6GJQsqaUBKTNV-0"/>
                <mxCell id="WIyWlLk6GJQsqaUBKTNV-1" parent="WIyWlLk6GJQsqaUBKTNV-0"/>
                <mxCell id="M7CGMbNuYNeq0SnUNNgH-6" value="ทบทวนสัญลักษณ์" style="swimlane;fontFamily=Sarabun;fontSource=https%3A%2F%2Ffonts.googleapis.com%2Fcss%3Ffamily%3DSarabun;" parent="WIyWlLk6GJQsqaUBKTNV-1" vertex="1">
                    <mxGeometry x="-720" y="20" width="650" height="290" as="geometry"/>
                </mxCell>
                <mxCell id="M7CGMbNuYNeq0SnUNNgH-2" value="&lt;font data-font-src=&quot;https://fonts.googleapis.com/css?family=Sarabun&quot; face=&quot;Sarabun&quot;&gt;เริ่มต้น&lt;/font&gt;" style="ellipse;whiteSpace=wrap;html=1;" parent="M7CGMbNuYNeq0SnUNNgH-6" vertex="1">
                    <mxGeometry x="20" y="40" width="130" height="30" as="geometry"/>
                </mxCell>
                <mxCell id="M7CGMbNuYNeq0SnUNNgH-5" value="" style="endArrow=classic;html=1;rounded=0;" parent="M7CGMbNuYNeq0SnUNNgH-6" edge="1">
                    <mxGeometry width="50" height="50" relative="1" as="geometry">
                        <mxPoint x="84.5" y="70" as="sourcePoint"/>
                        <mxPoint x="84.5" y="120" as="targetPoint"/>
                    </mxGeometry>
                </mxCell>
                <mxCell id="M7CGMbNuYNeq0SnUNNgH-3" value="&lt;font face=&quot;Sarabun&quot;&gt;สิ้นสุด&lt;/font&gt;" style="ellipse;whiteSpace=wrap;html=1;" parent="M7CGMbNuYNeq0SnUNNgH-6" vertex="1">
                    <mxGeometry x="150" y="90" width="130" height="30" as="geometry"/>
                </mxCell>
                <mxCell id="M7CGMbNuYNeq0SnUNNgH-4" value="" style="endArrow=classic;html=1;rounded=0;" parent="M7CGMbNuYNeq0SnUNNgH-6" edge="1">
                    <mxGeometry width="50" height="50" relative="1" as="geometry">
                        <mxPoint x="214.5" y="40" as="sourcePoint"/>
                        <mxPoint x="214.5" y="90" as="targetPoint"/>
                    </mxGeometry>
                </mxCell>
                <mxCell id="mvioNwK95yMqdUQ73LqQ-0" value="กระบวนการ" style="rounded=0;whiteSpace=wrap;html=1;fontFamily=Sarabun;fontSource=https%3A%2F%2Ffonts.googleapis.com%2Fcss%3Ffamily%3DSarabun;" parent="M7CGMbNuYNeq0SnUNNgH-6" vertex="1">
                    <mxGeometry x="320" y="70" width="120" height="30" as="geometry"/>
                </mxCell>
                <mxCell id="mvioNwK95yMqdUQ73LqQ-1" value="" style="endArrow=classic;html=1;rounded=0;" parent="M7CGMbNuYNeq0SnUNNgH-6" edge="1">
                    <mxGeometry width="50" height="50" relative="1" as="geometry">
                        <mxPoint x="379" y="40" as="sourcePoint"/>
                        <mxPoint x="379.5" y="70" as="targetPoint"/>
                    </mxGeometry>
                </mxCell>
                <mxCell id="mvioNwK95yMqdUQ73LqQ-2" value="" style="endArrow=classic;html=1;rounded=0;" parent="M7CGMbNuYNeq0SnUNNgH-6" edge="1">
                    <mxGeometry width="50" height="50" relative="1" as="geometry">
                        <mxPoint x="379.75" y="100" as="sourcePoint"/>
                        <mxPoint x="380.25" y="130" as="targetPoint"/>
                    </mxGeometry>
                </mxCell>
                <mxCell id="mvioNwK95yMqdUQ73LqQ-3" value="ประโยคเงื่อนไข" style="rhombus;whiteSpace=wrap;html=1;fontFamily=Sarabun;fontSource=https%3A%2F%2Ffonts.googleapis.com%2Fcss%3Ffamily%3DSarabun;" parent="M7CGMbNuYNeq0SnUNNgH-6" vertex="1">
                    <mxGeometry x="490" y="60" width="100" height="60" as="geometry"/>
                </mxCell>
                <mxCell id="mvioNwK95yMqdUQ73LqQ-4" value="" style="endArrow=classic;html=1;rounded=0;" parent="M7CGMbNuYNeq0SnUNNgH-6" edge="1">
                    <mxGeometry width="50" height="50" relative="1" as="geometry">
                        <mxPoint x="539.71" y="30" as="sourcePoint"/>
                        <mxPoint x="540.21" y="60" as="targetPoint"/>
                    </mxGeometry>
                </mxCell>
                <mxCell id="mvioNwK95yMqdUQ73LqQ-5" value="" style="endArrow=classic;html=1;rounded=0;" parent="M7CGMbNuYNeq0SnUNNgH-6" edge="1">
                    <mxGeometry width="50" height="50" relative="1" as="geometry">
                        <mxPoint x="539.71" y="120" as="sourcePoint"/>
                        <mxPoint x="540" y="175" as="targetPoint"/>
                    </mxGeometry>
                </mxCell>
                <mxCell id="mvioNwK95yMqdUQ73LqQ-7" value="จริง" style="edgeLabel;html=1;align=center;verticalAlign=middle;resizable=0;points=[];fontFamily=Sarabun;fontSource=https%3A%2F%2Ffonts.googleapis.com%2Fcss%3Ffamily%3DSarabun;" parent="mvioNwK95yMqdUQ73LqQ-5" vertex="1" connectable="0">
                    <mxGeometry x="-0.4142" y="-1" relative="1" as="geometry">
                        <mxPoint as="offset"/>
                    </mxGeometry>
                </mxCell>
                <mxCell id="mvioNwK95yMqdUQ73LqQ-6" value="" style="endArrow=classic;html=1;rounded=0;exitX=1;exitY=0.5;exitDx=0;exitDy=0;" parent="M7CGMbNuYNeq0SnUNNgH-6" source="mvioNwK95yMqdUQ73LqQ-3" edge="1">
                    <mxGeometry width="50" height="50" relative="1" as="geometry">
                        <mxPoint x="620" y="95" as="sourcePoint"/>
                        <mxPoint x="610" y="175" as="targetPoint"/>
                        <Array as="points">
                            <mxPoint x="610" y="90"/>
                        </Array>
                    </mxGeometry>
                </mxCell>
                <mxCell id="mvioNwK95yMqdUQ73LqQ-8" value="&lt;font data-font-src=&quot;https://fonts.googleapis.com/css?family=Sarabun&quot; face=&quot;Sarabun&quot;&gt;เท็จ&lt;/font&gt;" style="edgeLabel;html=1;align=center;verticalAlign=middle;resizable=0;points=[];" parent="mvioNwK95yMqdUQ73LqQ-6" vertex="1" connectable="0">
                    <mxGeometry x="-0.0019" y="-2" relative="1" as="geometry">
                        <mxPoint as="offset"/>
                    </mxGeometry>
                </mxCell>
                <mxCell id="mvioNwK95yMqdUQ73LqQ-9" value="&lt;font data-font-src=&quot;https://fonts.googleapis.com/css?family=Sarabun&quot; face=&quot;Sarabun&quot;&gt;ฟังก์ชัน/โมดูล&lt;/font&gt;" style="shape=process;whiteSpace=wrap;html=1;backgroundOutline=1;" parent="M7CGMbNuYNeq0SnUNNgH-6" vertex="1">
                    <mxGeometry x="25" y="180" width="120" height="30" as="geometry"/>
                </mxCell>
                <mxCell id="mvioNwK95yMqdUQ73LqQ-11" value="" style="endArrow=classic;html=1;rounded=0;" parent="M7CGMbNuYNeq0SnUNNgH-6" edge="1">
                    <mxGeometry width="50" height="50" relative="1" as="geometry">
                        <mxPoint x="84.70999999999998" y="150" as="sourcePoint"/>
                        <mxPoint x="85.20999999999998" y="180" as="targetPoint"/>
                    </mxGeometry>
                </mxCell>
                <mxCell id="mvioNwK95yMqdUQ73LqQ-12" value="" style="endArrow=classic;html=1;rounded=0;" parent="M7CGMbNuYNeq0SnUNNgH-6" edge="1">
                    <mxGeometry width="50" height="50" relative="1" as="geometry">
                        <mxPoint x="84.70999999999998" y="210" as="sourcePoint"/>
                        <mxPoint x="85.20999999999998" y="240" as="targetPoint"/>
                    </mxGeometry>
                </mxCell>
                <mxCell id="mvioNwK95yMqdUQ73LqQ-13" value="" style="strokeWidth=2;html=1;shape=mxgraph.flowchart.start_2;whiteSpace=wrap;" parent="M7CGMbNuYNeq0SnUNNgH-6" vertex="1">
                    <mxGeometry x="205" y="185" width="20" height="20" as="geometry"/>
                </mxCell>
                <mxCell id="mvioNwK95yMqdUQ73LqQ-16" value="" style="endArrow=classic;html=1;rounded=0;" parent="M7CGMbNuYNeq0SnUNNgH-6" edge="1">
                    <mxGeometry width="50" height="50" relative="1" as="geometry">
                        <mxPoint x="214.70999999999998" y="155" as="sourcePoint"/>
                        <mxPoint x="215.20999999999998" y="185" as="targetPoint"/>
                    </mxGeometry>
                </mxCell>
                <mxCell id="mvioNwK95yMqdUQ73LqQ-17" value="" style="endArrow=classic;html=1;rounded=0;entryX=0;entryY=0.5;entryDx=0;entryDy=0;entryPerimeter=0;" parent="M7CGMbNuYNeq0SnUNNgH-6" target="mvioNwK95yMqdUQ73LqQ-13" edge="1">
                    <mxGeometry width="50" height="50" relative="1" as="geometry">
                        <mxPoint x="189.99999999999997" y="155" as="sourcePoint"/>
                        <mxPoint x="190.49999999999997" y="185" as="targetPoint"/>
                        <Array as="points">
                            <mxPoint x="190" y="180"/>
                        </Array>
                    </mxGeometry>
                </mxCell>
                <mxCell id="mvioNwK95yMqdUQ73LqQ-18" value="" style="endArrow=classic;html=1;rounded=0;entryX=1;entryY=0.5;entryDx=0;entryDy=0;entryPerimeter=0;" parent="M7CGMbNuYNeq0SnUNNgH-6" target="mvioNwK95yMqdUQ73LqQ-13" edge="1">
                    <mxGeometry width="50" height="50" relative="1" as="geometry">
                        <mxPoint x="239.99999999999997" y="155" as="sourcePoint"/>
                        <mxPoint x="240.49999999999997" y="185" as="targetPoint"/>
                        <Array as="points">
                            <mxPoint x="240" y="180"/>
                        </Array>
                    </mxGeometry>
                </mxCell>
                <mxCell id="mvioNwK95yMqdUQ73LqQ-19" value="" style="endArrow=classic;html=1;rounded=0;" parent="M7CGMbNuYNeq0SnUNNgH-6" edge="1">
                    <mxGeometry width="50" height="50" relative="1" as="geometry">
                        <mxPoint x="214.70999999999998" y="205" as="sourcePoint"/>
                        <mxPoint x="215.20999999999998" y="235" as="targetPoint"/>
                    </mxGeometry>
                </mxCell>
                <mxCell id="mvioNwK95yMqdUQ73LqQ-20" value="&lt;font data-font-src=&quot;https://fonts.googleapis.com/css?family=Sarabun&quot; face=&quot;Sarabun&quot;&gt;ตัวเชื่อม&lt;/font&gt;" style="text;html=1;align=center;verticalAlign=middle;resizable=0;points=[];autosize=1;strokeColor=none;fillColor=none;" parent="M7CGMbNuYNeq0SnUNNgH-6" vertex="1">
                    <mxGeometry x="220" y="190" width="60" height="30" as="geometry"/>
                </mxCell>
                <mxCell id="mvioNwK95yMqdUQ73LqQ-25" value="" style="endArrow=classic;html=1;rounded=0;" parent="M7CGMbNuYNeq0SnUNNgH-6" edge="1">
                    <mxGeometry width="50" height="50" relative="1" as="geometry">
                        <mxPoint x="353.71" y="165" as="sourcePoint"/>
                        <mxPoint x="354.21" y="195" as="targetPoint"/>
                    </mxGeometry>
                </mxCell>
                <mxCell id="mvioNwK95yMqdUQ73LqQ-21" value="" style="verticalLabelPosition=bottom;verticalAlign=top;html=1;shape=offPageConnector;rounded=0;size=0.5;" parent="M7CGMbNuYNeq0SnUNNgH-6" vertex="1">
                    <mxGeometry x="339" y="195" width="30" height="30" as="geometry"/>
                </mxCell>
                <mxCell id="mvioNwK95yMqdUQ73LqQ-26" value="" style="endArrow=classic;html=1;rounded=0;" parent="M7CGMbNuYNeq0SnUNNgH-6" edge="1">
                    <mxGeometry width="50" height="50" relative="1" as="geometry">
                        <mxPoint x="405.71" y="195" as="sourcePoint"/>
                        <mxPoint x="406.21" y="225" as="targetPoint"/>
                    </mxGeometry>
                </mxCell>
                <mxCell id="mvioNwK95yMqdUQ73LqQ-27" value="" style="verticalLabelPosition=bottom;verticalAlign=top;html=1;shape=offPageConnector;rounded=0;size=0.5;" parent="M7CGMbNuYNeq0SnUNNgH-6" vertex="1">
                    <mxGeometry x="391" y="165" width="30" height="30" as="geometry"/>
                </mxCell>
                <mxCell id="mvioNwK95yMqdUQ73LqQ-28" value="หน้าต่อไป" style="text;html=1;align=center;verticalAlign=middle;resizable=0;points=[];autosize=1;strokeColor=none;fillColor=none;fontFamily=Sarabun;fontSource=https%3A%2F%2Ffonts.googleapis.com%2Fcss%3Ffamily%3DSarabun;" parent="M7CGMbNuYNeq0SnUNNgH-6" vertex="1">
                    <mxGeometry x="345" y="220" width="70" height="30" as="geometry"/>
                </mxCell>
                <mxCell id="mvioNwK95yMqdUQ73LqQ-29" value="ก" style="text;html=1;align=center;verticalAlign=middle;resizable=0;points=[];autosize=1;strokeColor=none;fillColor=none;fontFamily=Sarabun;fontSource=https%3A%2F%2Ffonts.googleapis.com%2Fcss%3Ffamily%3DSarabun;" parent="M7CGMbNuYNeq0SnUNNgH-6" vertex="1">
                    <mxGeometry x="339" y="190" width="30" height="30" as="geometry"/>
                </mxCell>
                <mxCell id="mvioNwK95yMqdUQ73LqQ-30" value="ก" style="text;html=1;align=center;verticalAlign=middle;resizable=0;points=[];autosize=1;strokeColor=none;fillColor=none;fontFamily=Sarabun;fontSource=https%3A%2F%2Ffonts.googleapis.com%2Fcss%3Ffamily%3DSarabun;" parent="M7CGMbNuYNeq0SnUNNgH-6" vertex="1">
                    <mxGeometry x="391" y="160" width="30" height="30" as="geometry"/>
                </mxCell>
                <mxCell id="mvioNwK95yMqdUQ73LqQ-32" value="แสดงผล/รับค่า" style="shape=parallelogram;perimeter=parallelogramPerimeter;whiteSpace=wrap;html=1;fixedSize=1;fontFamily=Sarabun;fontSource=https%3A%2F%2Ffonts.googleapis.com%2Fcss%3Ffamily%3DSarabun;" parent="M7CGMbNuYNeq0SnUNNgH-6" vertex="1">
                    <mxGeometry x="450" y="210" width="120" height="30" as="geometry"/>
                </mxCell>
                <mxCell id="mvioNwK95yMqdUQ73LqQ-33" value="" style="endArrow=classic;html=1;rounded=0;" parent="M7CGMbNuYNeq0SnUNNgH-6" edge="1">
                    <mxGeometry width="50" height="50" relative="1" as="geometry">
                        <mxPoint x="509.71" y="180" as="sourcePoint"/>
                        <mxPoint x="510.21" y="210" as="targetPoint"/>
                    </mxGeometry>
                </mxCell>
                <mxCell id="mvioNwK95yMqdUQ73LqQ-34" value="" style="endArrow=classic;html=1;rounded=0;" parent="M7CGMbNuYNeq0SnUNNgH-6" edge="1">
                    <mxGeometry width="50" height="50" relative="1" as="geometry">
                        <mxPoint x="509.71" y="240" as="sourcePoint"/>
                        <mxPoint x="510.21" y="270" as="targetPoint"/>
                    </mxGeometry>
                </mxCell>
                <mxCell id="mvioNwK95yMqdUQ73LqQ-36" value="แก้ไขโจทย์ปัญหา" style="swimlane;fontFamily=Sarabun;fontSource=https%3A%2F%2Ffonts.googleapis.com%2Fcss%3Ffamily%3DSarabun;" parent="WIyWlLk6GJQsqaUBKTNV-1" vertex="1">
                    <mxGeometry x="-720" y="640" width="640" height="1670" as="geometry"/>
                </mxCell>
                <mxCell id="mvioNwK95yMqdUQ73LqQ-35" value="&lt;font data-font-src=&quot;https://fonts.googleapis.com/css?family=Sarabun&quot; face=&quot;Sarabun&quot;&gt;เริ่มต้น&lt;/font&gt;" style="ellipse;whiteSpace=wrap;html=1;" parent="mvioNwK95yMqdUQ73LqQ-36" vertex="1">
                    <mxGeometry x="255" y="40" width="130" height="30" as="geometry"/>
                </mxCell>
                <mxCell id="mvioNwK95yMqdUQ73LqQ-69" value="&lt;font face=&quot;Sarabun&quot;&gt;สิ้นสุด&lt;/font&gt;" style="ellipse;whiteSpace=wrap;html=1;" parent="mvioNwK95yMqdUQ73LqQ-36" vertex="1">
                    <mxGeometry x="255" y="1620" width="130" height="30" as="geometry"/>
                </mxCell>
                <mxCell id="mvioNwK95yMqdUQ73LqQ-70" value="&lt;font data-font-src=&quot;https://fonts.googleapis.com/css?family=Sarabun&quot; face=&quot;Sarabun&quot;&gt;โจทย์ปัญหา&lt;/font&gt;" style="swimlane;whiteSpace=wrap;html=1;" parent="WIyWlLk6GJQsqaUBKTNV-1" vertex="1">
                    <mxGeometry x="-720" y="320" width="645" height="310" as="geometry"/>
                </mxCell>
                <mxCell id="mvioNwK95yMqdUQ73LqQ-71" value="&lt;p style=&quot;line-height: 120%;&quot;&gt;&lt;font data-font-src=&quot;https://fonts.googleapis.com/css?family=Sarabun&quot; face=&quot;Sarabun&quot; style=&quot;font-size: 14px;&quot;&gt;&lt;b&gt;&lt;u&gt;โจทย์&lt;/u&gt;&lt;/b&gt; จงเขียน Flowchart เพื่อแสดงขั้นตอนการทำงาน ของเครื่องขายน้ำอัตโนมัติ โดยเครื่องมีการทำงานดังนี้&lt;br&gt;&amp;nbsp; &amp;nbsp; - เครื่องมีสินค้าประเภท &quot;เครื่องดื่ม&quot; อยู่ 3 อย่างคือ กาแฟอเมริกาโน่ร้อน , ลาเต้เย็น , น้ำเปล่า&lt;br&gt;&amp;nbsp; &amp;nbsp; - เครื่องมีสินค้าประเภท &quot;ขนม&quot; อยู่ 3 อย่างคือ ขนมชั้น, ฝอยทอง, ลำไยอบแห้ง&lt;br&gt;&amp;nbsp; &amp;nbsp; - เครื่องสามารถทอนเงินลูกค้าได้ทั้ง เหรียญ และ ธนบัตร (โดยจะต้องเลือกทอนเงินด้วยธนบัตรใหญ่ก่อน)&lt;br&gt;&lt;/font&gt;&lt;span style=&quot;font-family: Sarabun; background-color: initial;&quot;&gt;&amp;nbsp; &amp;nbsp; &amp;nbsp; &amp;nbsp;กรณีที่มีเงินทอนไม่พอ ให้แจ้งลูกค้าก่อนซื้อสินค้าว่า &quot;เครื่องไม่มีเงิน&quot;&lt;br&gt;&amp;nbsp; &amp;nbsp; -&amp;nbsp; เครื่องสามารถแสดงจำนวนสินค้าคงเหลือ ราคาสินค้า จำนวนสินค้าที่ลูกค้าสั่ง และรวมราคาที่ลูกค้าต้องจ่าย&lt;br&gt;&lt;/span&gt;&lt;span style=&quot;font-family: Sarabun; background-color: initial;&quot;&gt;&lt;b&gt;&lt;u&gt;เหตุการณ์&lt;/u&gt;&lt;/b&gt;&lt;br&gt;&amp;nbsp; &amp;nbsp; &lt;b&gt;ลูกค้า&lt;/b&gt;สามารถเลือกสินค้ากี่ชิ้นก็ได้ จนกว่าลูกค้าจะพอใจ เมื่อพอใจแล้ว สามารถกดปุ่ม &quot;ตกลง&quot; เพื่อคำนวณ&lt;br&gt;ยอดเงินทั้งหมดที่ลูกค้าต้องชำระ และลูกค้าต้องใส่เงินไปตามจำนวน(หรือมากกว่า) เพื่อทำการชำระสินค้า&lt;br&gt;และตู้ก็จะทอนเงินให้ลูกค้า พร้อมส่งสินค้าให้ลูกค้า&lt;br&gt;&amp;nbsp; &amp;nbsp; &lt;b&gt;แอ็ดมิน&lt;/b&gt;สามารถได้รับการแจ้งเตือนทุกครั้งที่มีลูกค้ากดซื้อสินค้าหน้าตู้ โดยจะมีข้อมูลสรุปกำไรทั้งหมด จำนวน&lt;br&gt;เงินทอนคงเหลือ(ว่าเหลือแต่ละเหรียญและธนบัตรอยู่ทั้งหมดอย่างละเท่าไหร่)&lt;/span&gt;&lt;/p&gt;" style="text;html=1;align=left;verticalAlign=top;resizable=0;points=[];autosize=1;strokeColor=none;fillColor=none;fontSize=14;" parent="mvioNwK95yMqdUQ73LqQ-70" vertex="1">
                    <mxGeometry x="15" y="20" width="630" height="260" as="geometry"/>
                </mxCell>
                <mxCell id="0" value="ทบทวนสัญลักษณ์" style="swimlane;fontFamily=Sarabun;fontSource=https%3A%2F%2Ffonts.googleapis.com%2Fcss%3Ffamily%3DSarabun;" vertex="1" parent="WIyWlLk6GJQsqaUBKTNV-1">
                    <mxGeometry x="-720" y="20" width="650" height="290" as="geometry"/>
                </mxCell>
                <mxCell id="1" value="&lt;font data-font-src=&quot;https://fonts.googleapis.com/css?family=Sarabun&quot; face=&quot;Sarabun&quot;&gt;เริ่มต้น&lt;/font&gt;" style="ellipse;whiteSpace=wrap;html=1;" vertex="1" parent="0">
                    <mxGeometry x="20" y="40" width="130" height="30" as="geometry"/>
                </mxCell>
                <mxCell id="2" value="" style="endArrow=classic;html=1;rounded=0;" edge="1" parent="0">
                    <mxGeometry width="50" height="50" relative="1" as="geometry">
                        <mxPoint x="84.5" y="70" as="sourcePoint"/>
                        <mxPoint x="84.5" y="120" as="targetPoint"/>
                    </mxGeometry>
                </mxCell>
                <mxCell id="3" value="&lt;font face=&quot;Sarabun&quot;&gt;สิ้นสุด&lt;/font&gt;" style="ellipse;whiteSpace=wrap;html=1;" vertex="1" parent="0">
                    <mxGeometry x="150" y="90" width="130" height="30" as="geometry"/>
                </mxCell>
                <mxCell id="4" value="" style="endArrow=classic;html=1;rounded=0;" edge="1" parent="0">
                    <mxGeometry width="50" height="50" relative="1" as="geometry">
                        <mxPoint x="214.5" y="40" as="sourcePoint"/>
                        <mxPoint x="214.5" y="90" as="targetPoint"/>
                    </mxGeometry>
                </mxCell>
                <mxCell id="5" value="กระบวนการ" style="rounded=0;whiteSpace=wrap;html=1;fontFamily=Sarabun;fontSource=https%3A%2F%2Ffonts.googleapis.com%2Fcss%3Ffamily%3DSarabun;" vertex="1" parent="0">
                    <mxGeometry x="320" y="70" width="120" height="30" as="geometry"/>
                </mxCell>
                <mxCell id="6" value="" style="endArrow=classic;html=1;rounded=0;" edge="1" parent="0">
                    <mxGeometry width="50" height="50" relative="1" as="geometry">
                        <mxPoint x="379" y="40" as="sourcePoint"/>
                        <mxPoint x="379.5" y="70" as="targetPoint"/>
                    </mxGeometry>
                </mxCell>
                <mxCell id="7" value="" style="endArrow=classic;html=1;rounded=0;" edge="1" parent="0">
                    <mxGeometry width="50" height="50" relative="1" as="geometry">
                        <mxPoint x="379.75" y="100" as="sourcePoint"/>
                        <mxPoint x="380.25" y="130" as="targetPoint"/>
                    </mxGeometry>
                </mxCell>
                <mxCell id="8" value="ประโยคเงื่อนไข" style="rhombus;whiteSpace=wrap;html=1;fontFamily=Sarabun;fontSource=https%3A%2F%2Ffonts.googleapis.com%2Fcss%3Ffamily%3DSarabun;" vertex="1" parent="0">
                    <mxGeometry x="490" y="60" width="100" height="60" as="geometry"/>
                </mxCell>
                <mxCell id="9" value="" style="endArrow=classic;html=1;rounded=0;" edge="1" parent="0">
                    <mxGeometry width="50" height="50" relative="1" as="geometry">
                        <mxPoint x="539.71" y="30" as="sourcePoint"/>
                        <mxPoint x="540.21" y="60" as="targetPoint"/>
                    </mxGeometry>
                </mxCell>
                <mxCell id="10" value="" style="endArrow=classic;html=1;rounded=0;" edge="1" parent="0">
                    <mxGeometry width="50" height="50" relative="1" as="geometry">
                        <mxPoint x="539.71" y="120" as="sourcePoint"/>
                        <mxPoint x="540" y="175" as="targetPoint"/>
                    </mxGeometry>
                </mxCell>
                <mxCell id="11" value="จริง" style="edgeLabel;html=1;align=center;verticalAlign=middle;resizable=0;points=[];fontFamily=Sarabun;fontSource=https%3A%2F%2Ffonts.googleapis.com%2Fcss%3Ffamily%3DSarabun;" vertex="1" connectable="0" parent="10">
                    <mxGeometry x="-0.4142" y="-1" relative="1" as="geometry">
                        <mxPoint as="offset"/>
                    </mxGeometry>
                </mxCell>
                <mxCell id="12" value="" style="endArrow=classic;html=1;rounded=0;exitX=1;exitY=0.5;exitDx=0;exitDy=0;" edge="1" parent="0" source="8">
                    <mxGeometry width="50" height="50" relative="1" as="geometry">
                        <mxPoint x="620" y="95" as="sourcePoint"/>
                        <mxPoint x="610" y="175" as="targetPoint"/>
                        <Array as="points">
                            <mxPoint x="610" y="90"/>
                        </Array>
                    </mxGeometry>
                </mxCell>
                <mxCell id="13" value="&lt;font data-font-src=&quot;https://fonts.googleapis.com/css?family=Sarabun&quot; face=&quot;Sarabun&quot;&gt;เท็จ&lt;/font&gt;" style="edgeLabel;html=1;align=center;verticalAlign=middle;resizable=0;points=[];" vertex="1" connectable="0" parent="12">
                    <mxGeometry x="-0.0019" y="-2" relative="1" as="geometry">
                        <mxPoint as="offset"/>
                    </mxGeometry>
                </mxCell>
                <mxCell id="14" value="&lt;font data-font-src=&quot;https://fonts.googleapis.com/css?family=Sarabun&quot; face=&quot;Sarabun&quot;&gt;ฟังก์ชัน/โมดูล&lt;/font&gt;" style="shape=process;whiteSpace=wrap;html=1;backgroundOutline=1;" vertex="1" parent="0">
                    <mxGeometry x="25" y="180" width="120" height="30" as="geometry"/>
                </mxCell>
                <mxCell id="15" value="" style="endArrow=classic;html=1;rounded=0;" edge="1" parent="0">
                    <mxGeometry width="50" height="50" relative="1" as="geometry">
                        <mxPoint x="84.70999999999998" y="150" as="sourcePoint"/>
                        <mxPoint x="85.20999999999998" y="180" as="targetPoint"/>
                    </mxGeometry>
                </mxCell>
                <mxCell id="16" value="" style="endArrow=classic;html=1;rounded=0;" edge="1" parent="0">
                    <mxGeometry width="50" height="50" relative="1" as="geometry">
                        <mxPoint x="84.70999999999998" y="210" as="sourcePoint"/>
                        <mxPoint x="85.20999999999998" y="240" as="targetPoint"/>
                    </mxGeometry>
                </mxCell>
                <mxCell id="17" value="" style="strokeWidth=2;html=1;shape=mxgraph.flowchart.start_2;whiteSpace=wrap;" vertex="1" parent="0">
                    <mxGeometry x="205" y="185" width="20" height="20" as="geometry"/>
                </mxCell>
                <mxCell id="18" value="" style="endArrow=classic;html=1;rounded=0;" edge="1" parent="0">
                    <mxGeometry width="50" height="50" relative="1" as="geometry">
                        <mxPoint x="214.70999999999998" y="155" as="sourcePoint"/>
                        <mxPoint x="215.20999999999998" y="185" as="targetPoint"/>
                    </mxGeometry>
                </mxCell>
                <mxCell id="19" value="" style="endArrow=classic;html=1;rounded=0;entryX=0;entryY=0.5;entryDx=0;entryDy=0;entryPerimeter=0;" edge="1" parent="0" target="17">
                    <mxGeometry width="50" height="50" relative="1" as="geometry">
                        <mxPoint x="189.99999999999997" y="155" as="sourcePoint"/>
                        <mxPoint x="190.49999999999997" y="185" as="targetPoint"/>
                        <Array as="points">
                            <mxPoint x="190" y="180"/>
                        </Array>
                    </mxGeometry>
                </mxCell>
                <mxCell id="20" value="" style="endArrow=classic;html=1;rounded=0;entryX=1;entryY=0.5;entryDx=0;entryDy=0;entryPerimeter=0;" edge="1" parent="0" target="17">
                    <mxGeometry width="50" height="50" relative="1" as="geometry">
                        <mxPoint x="239.99999999999997" y="155" as="sourcePoint"/>
                        <mxPoint x="240.49999999999997" y="185" as="targetPoint"/>
                        <Array as="points">
                            <mxPoint x="240" y="180"/>
                        </Array>
                    </mxGeometry>
                </mxCell>
                <mxCell id="21" value="" style="endArrow=classic;html=1;rounded=0;" edge="1" parent="0">
                    <mxGeometry width="50" height="50" relative="1" as="geometry">
                        <mxPoint x="214.70999999999998" y="205" as="sourcePoint"/>
                        <mxPoint x="215.20999999999998" y="235" as="targetPoint"/>
                    </mxGeometry>
                </mxCell>
                <mxCell id="22" value="&lt;font data-font-src=&quot;https://fonts.googleapis.com/css?family=Sarabun&quot; face=&quot;Sarabun&quot;&gt;ตัวเชื่อม&lt;/font&gt;" style="text;html=1;align=center;verticalAlign=middle;resizable=0;points=[];autosize=1;strokeColor=none;fillColor=none;" vertex="1" parent="0">
                    <mxGeometry x="220" y="190" width="60" height="30" as="geometry"/>
                </mxCell>
                <mxCell id="23" value="" style="endArrow=classic;html=1;rounded=0;" edge="1" parent="0">
                    <mxGeometry width="50" height="50" relative="1" as="geometry">
                        <mxPoint x="353.71" y="165" as="sourcePoint"/>
                        <mxPoint x="354.21" y="195" as="targetPoint"/>
                    </mxGeometry>
                </mxCell>
                <mxCell id="24" value="" style="verticalLabelPosition=bottom;verticalAlign=top;html=1;shape=offPageConnector;rounded=0;size=0.5;" vertex="1" parent="0">
                    <mxGeometry x="339" y="195" width="30" height="30" as="geometry"/>
                </mxCell>
                <mxCell id="25" value="" style="endArrow=classic;html=1;rounded=0;" edge="1" parent="0">
                    <mxGeometry width="50" height="50" relative="1" as="geometry">
                        <mxPoint x="405.71" y="195" as="sourcePoint"/>
                        <mxPoint x="406.21" y="225" as="targetPoint"/>
                    </mxGeometry>
                </mxCell>
                <mxCell id="26" value="" style="verticalLabelPosition=bottom;verticalAlign=top;html=1;shape=offPageConnector;rounded=0;size=0.5;" vertex="1" parent="0">
                    <mxGeometry x="391" y="165" width="30" height="30" as="geometry"/>
                </mxCell>
                <mxCell id="27" value="หน้าต่อไป" style="text;html=1;align=center;verticalAlign=middle;resizable=0;points=[];autosize=1;strokeColor=none;fillColor=none;fontFamily=Sarabun;fontSource=https%3A%2F%2Ffonts.googleapis.com%2Fcss%3Ffamily%3DSarabun;" vertex="1" parent="0">
                    <mxGeometry x="345" y="220" width="70" height="30" as="geometry"/>
                </mxCell>
                <mxCell id="28" value="ก" style="text;html=1;align=center;verticalAlign=middle;resizable=0;points=[];autosize=1;strokeColor=none;fillColor=none;fontFamily=Sarabun;fontSource=https%3A%2F%2Ffonts.googleapis.com%2Fcss%3Ffamily%3DSarabun;" vertex="1" parent="0">
                    <mxGeometry x="339" y="190" width="30" height="30" as="geometry"/>
                </mxCell>
                <mxCell id="29" value="ก" style="text;html=1;align=center;verticalAlign=middle;resizable=0;points=[];autosize=1;strokeColor=none;fillColor=none;fontFamily=Sarabun;fontSource=https%3A%2F%2Ffonts.googleapis.com%2Fcss%3Ffamily%3DSarabun;" vertex="1" parent="0">
                    <mxGeometry x="391" y="160" width="30" height="30" as="geometry"/>
                </mxCell>
                <mxCell id="30" value="แสดงผล/รับค่า" style="shape=parallelogram;perimeter=parallelogramPerimeter;whiteSpace=wrap;html=1;fixedSize=1;fontFamily=Sarabun;fontSource=https%3A%2F%2Ffonts.googleapis.com%2Fcss%3Ffamily%3DSarabun;" vertex="1" parent="0">
                    <mxGeometry x="450" y="210" width="120" height="30" as="geometry"/>
                </mxCell>
                <mxCell id="31" value="" style="endArrow=classic;html=1;rounded=0;" edge="1" parent="0">
                    <mxGeometry width="50" height="50" relative="1" as="geometry">
                        <mxPoint x="509.71" y="180" as="sourcePoint"/>
                        <mxPoint x="510.21" y="210" as="targetPoint"/>
                    </mxGeometry>
                </mxCell>
                <mxCell id="32" value="" style="endArrow=classic;html=1;rounded=0;" edge="1" parent="0">
                    <mxGeometry width="50" height="50" relative="1" as="geometry">
                        <mxPoint x="509.71" y="240" as="sourcePoint"/>
                        <mxPoint x="510.21" y="270" as="targetPoint"/>
                    </mxGeometry>
                </mxCell>
                <mxCell id="33" value="แก้ไขโจทย์ปัญหา" style="swimlane;fontFamily=Sarabun;fontSource=https%3A%2F%2Ffonts.googleapis.com%2Fcss%3Ffamily%3DSarabun;" vertex="1" parent="WIyWlLk6GJQsqaUBKTNV-1">
                    <mxGeometry x="-720" y="660" width="1030" height="3270" as="geometry"/>
                </mxCell>
                <mxCell id="34" value="&lt;font data-font-src=&quot;https://fonts.googleapis.com/css?family=Sarabun&quot; face=&quot;Sarabun&quot;&gt;เริ่มต้น&lt;/font&gt;" style="ellipse;whiteSpace=wrap;html=1;" vertex="1" parent="33">
                    <mxGeometry x="348" y="40" width="130" height="30" as="geometry"/>
                </mxCell>
                <mxCell id="35" value="&lt;font face=&quot;Sarabun&quot;&gt;สิ้นสุด&lt;/font&gt;" style="ellipse;whiteSpace=wrap;html=1;" vertex="1" parent="33">
                    <mxGeometry x="335" y="3210" width="130" height="30" as="geometry"/>
                </mxCell>
                <mxCell id="36" value="" style="edgeStyle=none;html=1;entryX=0.5;entryY=0;entryDx=0;entryDy=0;exitX=1;exitY=0.5;exitDx=0;exitDy=0;" edge="1" parent="33" source="37" target="51">
                    <mxGeometry relative="1" as="geometry">
                        <Array as="points">
                            <mxPoint x="488" y="175"/>
                            <mxPoint x="738" y="180"/>
                        </Array>
                    </mxGeometry>
                </mxCell>
                <mxCell id="37" value="เลือกสินค้า" style="rhombus;whiteSpace=wrap;html=1;" vertex="1" parent="33">
                    <mxGeometry x="323" y="140" width="180" height="70" as="geometry"/>
                </mxCell>
                <mxCell id="38" value="" style="endArrow=classic;html=1;entryX=0.5;entryY=0;entryDx=0;entryDy=0;exitX=0.5;exitY=1;exitDx=0;exitDy=0;" edge="1" parent="33" source="62" target="37">
                    <mxGeometry width="50" height="50" relative="1" as="geometry">
                        <mxPoint x="320" y="110" as="sourcePoint"/>
                        <mxPoint x="310" y="100" as="targetPoint"/>
                    </mxGeometry>
                </mxCell>
                <mxCell id="39" value="ขนม" style="text;html=1;strokeColor=none;fillColor=none;align=center;verticalAlign=middle;whiteSpace=wrap;rounded=0;" vertex="1" parent="33">
                    <mxGeometry x="490" y="150" width="60" height="30" as="geometry"/>
                </mxCell>
                <mxCell id="40" value="เครื่องดื่ม" style="text;html=1;strokeColor=none;fillColor=none;align=center;verticalAlign=middle;whiteSpace=wrap;rounded=0;" vertex="1" parent="33">
                    <mxGeometry x="272" y="150" width="60" height="30" as="geometry"/>
                </mxCell>
                <mxCell id="41" value="" style="edgeStyle=none;html=1;entryX=0.5;entryY=0;entryDx=0;entryDy=0;startArrow=none;" edge="1" parent="33" source="75" target="46">
                    <mxGeometry relative="1" as="geometry">
                        <mxPoint x="120.74715755278828" y="259.71358960476437" as="sourcePoint"/>
                        <mxPoint x="121.75528289025226" y="290.3605998636674" as="targetPoint"/>
                        <Array as="points">
                            <mxPoint x="119" y="250"/>
                        </Array>
                    </mxGeometry>
                </mxCell>
                <mxCell id="42" value="" style="edgeStyle=none;html=1;" edge="1" parent="33" source="43" target="74">
                    <mxGeometry relative="1" as="geometry"/>
                </mxCell>
                <mxCell id="43" value="กาแฟอเมริกาโน่&lt;br&gt;A" style="rhombus;whiteSpace=wrap;html=1;" vertex="1" parent="33">
                    <mxGeometry x="40" y="210" width="160" height="50" as="geometry"/>
                </mxCell>
                <mxCell id="44" value="" style="edgeStyle=none;html=1;entryX=0.5;entryY=0;entryDx=0;entryDy=0;exitX=0.5;exitY=1;exitDx=0;exitDy=0;startArrow=none;" edge="1" parent="33" source="80" target="48">
                    <mxGeometry relative="1" as="geometry">
                        <mxPoint x="118" y="410" as="sourcePoint"/>
                        <mxPoint x="120" y="540" as="targetPoint"/>
                    </mxGeometry>
                </mxCell>
                <mxCell id="45" value="" style="edgeStyle=none;html=1;" edge="1" parent="33" source="46" target="77">
                    <mxGeometry relative="1" as="geometry"/>
                </mxCell>
                <mxCell id="46" value="ลาเต้&lt;br&gt;B" style="rhombus;whiteSpace=wrap;html=1;" vertex="1" parent="33">
                    <mxGeometry x="71" y="520" width="95" height="46" as="geometry"/>
                </mxCell>
                <mxCell id="47" style="edgeStyle=none;html=1;exitX=1;exitY=0.5;exitDx=0;exitDy=0;entryX=0;entryY=0.5;entryDx=0;entryDy=0;" edge="1" parent="33" source="48" target="104">
                    <mxGeometry relative="1" as="geometry"/>
                </mxCell>
                <mxCell id="48" value="น้ำเปล่า&lt;br&gt;C" style="rhombus;whiteSpace=wrap;html=1;" vertex="1" parent="33">
                    <mxGeometry x="72.5" y="830" width="95" height="46" as="geometry"/>
                </mxCell>
                <mxCell id="49" value="" style="edgeStyle=none;html=1;startArrow=none;" edge="1" parent="33" source="132" target="54">
                    <mxGeometry relative="1" as="geometry"/>
                </mxCell>
                <mxCell id="50" style="edgeStyle=none;html=1;exitX=0;exitY=0.5;exitDx=0;exitDy=0;entryX=1;entryY=0.75;entryDx=0;entryDy=0;" edge="1" parent="33" source="51" target="108">
                    <mxGeometry relative="1" as="geometry"/>
                </mxCell>
                <mxCell id="51" value="ขนมชั้น&lt;br&gt;D" style="rhombus;whiteSpace=wrap;html=1;" vertex="1" parent="33">
                    <mxGeometry x="690" y="223" width="95" height="46" as="geometry"/>
                </mxCell>
                <mxCell id="52" value="" style="edgeStyle=none;html=1;startArrow=none;" edge="1" parent="33" source="134" target="57">
                    <mxGeometry relative="1" as="geometry"/>
                </mxCell>
                <mxCell id="53" style="edgeStyle=none;html=1;exitX=0;exitY=0.5;exitDx=0;exitDy=0;entryX=1;entryY=0.5;entryDx=0;entryDy=0;" edge="1" parent="33" source="54" target="116">
                    <mxGeometry relative="1" as="geometry"/>
                </mxCell>
                <mxCell id="54" value="ฝอยทอง&lt;br&gt;E" style="rhombus;whiteSpace=wrap;html=1;" vertex="1" parent="33">
                    <mxGeometry x="690" y="520" width="95" height="46" as="geometry"/>
                </mxCell>
                <mxCell id="55" value="" style="edgeStyle=none;html=1;entryX=1;entryY=0.5;entryDx=0;entryDy=0;" edge="1" parent="33" source="57" target="73">
                    <mxGeometry relative="1" as="geometry">
                        <mxPoint x="732.1023533249106" y="630.0552868266996" as="targetPoint"/>
                        <Array as="points">
                            <mxPoint x="740" y="1114"/>
                        </Array>
                    </mxGeometry>
                </mxCell>
                <mxCell id="56" style="edgeStyle=none;html=1;exitX=0;exitY=0.5;exitDx=0;exitDy=0;" edge="1" parent="33" source="57" target="124">
                    <mxGeometry relative="1" as="geometry"/>
                </mxCell>
                <mxCell id="57" value="ลำไยอบแห้ง&lt;br&gt;F" style="rhombus;whiteSpace=wrap;html=1;" vertex="1" parent="33">
                    <mxGeometry x="680" y="830" width="120" height="53.5" as="geometry"/>
                </mxCell>
                <mxCell id="58" value="" style="endArrow=classic;html=1;exitX=0;exitY=0.5;exitDx=0;exitDy=0;entryX=0.5;entryY=0;entryDx=0;entryDy=0;" edge="1" parent="33" source="37" target="43">
                    <mxGeometry width="50" height="50" relative="1" as="geometry">
                        <mxPoint x="250" y="190" as="sourcePoint"/>
                        <mxPoint x="120" y="180" as="targetPoint"/>
                        <Array as="points">
                            <mxPoint x="120" y="175"/>
                        </Array>
                    </mxGeometry>
                </mxCell>
                <mxCell id="59" value="" style="endArrow=classic;html=1;exitX=0.5;exitY=1;exitDx=0;exitDy=0;entryX=0;entryY=0.5;entryDx=0;entryDy=0;" edge="1" parent="33" source="48" target="73">
                    <mxGeometry width="50" height="50" relative="1" as="geometry">
                        <mxPoint x="122.5" y="576" as="sourcePoint"/>
                        <mxPoint x="300" y="600" as="targetPoint"/>
                        <Array as="points">
                            <mxPoint x="120" y="1114"/>
                        </Array>
                    </mxGeometry>
                </mxCell>
                <mxCell id="60" value="" style="edgeStyle=none;html=1;" edge="1" parent="33" source="61" target="65">
                    <mxGeometry relative="1" as="geometry"/>
                </mxCell>
                <mxCell id="61" value="เลือกสินค้าเพิ่มเติม" style="rhombus;whiteSpace=wrap;html=1;" vertex="1" parent="33">
                    <mxGeometry x="315" y="1150" width="170" height="55" as="geometry"/>
                </mxCell>
                <mxCell id="62" value="" style="ellipse;whiteSpace=wrap;html=1;aspect=fixed;" vertex="1" parent="33">
                    <mxGeometry x="403" y="90" width="20" height="20" as="geometry"/>
                </mxCell>
                <mxCell id="63" value="" style="endArrow=none;html=1;exitX=0.5;exitY=1;exitDx=0;exitDy=0;entryX=0.5;entryY=0;entryDx=0;entryDy=0;" edge="1" parent="33" source="34" target="62">
                    <mxGeometry width="50" height="50" relative="1" as="geometry">
                        <mxPoint x="300" y="260" as="sourcePoint"/>
                        <mxPoint x="350" y="210" as="targetPoint"/>
                    </mxGeometry>
                </mxCell>
                <mxCell id="64" style="edgeStyle=none;html=1;exitX=0.5;exitY=1;exitDx=0;exitDy=0;" edge="1" parent="33" source="65" target="144">
                    <mxGeometry relative="1" as="geometry"/>
                </mxCell>
                <mxCell id="65" value="กดปุ่ม &quot;ตกลง&quot;" style="whiteSpace=wrap;html=1;" vertex="1" parent="33">
                    <mxGeometry x="340" y="1240" width="120" height="27.5" as="geometry"/>
                </mxCell>
                <mxCell id="66" value="N" style="text;html=1;strokeColor=none;fillColor=none;align=center;verticalAlign=middle;whiteSpace=wrap;rounded=0;" vertex="1" parent="33">
                    <mxGeometry x="362" y="1200" width="60" height="30" as="geometry"/>
                </mxCell>
                <mxCell id="67" value="" style="endArrow=none;html=1;entryX=1;entryY=0.5;entryDx=0;entryDy=0;exitX=1;exitY=0.5;exitDx=0;exitDy=0;" edge="1" parent="33" source="62" target="61">
                    <mxGeometry width="50" height="50" relative="1" as="geometry">
                        <mxPoint x="430" y="100" as="sourcePoint"/>
                        <mxPoint x="570" y="590" as="targetPoint"/>
                        <Array as="points">
                            <mxPoint x="820" y="100"/>
                            <mxPoint x="820" y="1178"/>
                        </Array>
                    </mxGeometry>
                </mxCell>
                <mxCell id="68" value="N" style="text;html=1;strokeColor=none;fillColor=none;align=center;verticalAlign=middle;whiteSpace=wrap;rounded=0;" vertex="1" parent="33">
                    <mxGeometry x="80" y="566" width="60" height="30" as="geometry"/>
                </mxCell>
                <mxCell id="69" value="Y" style="text;html=1;strokeColor=none;fillColor=none;align=center;verticalAlign=middle;whiteSpace=wrap;rounded=0;" vertex="1" parent="33">
                    <mxGeometry x="180" y="210" width="60" height="30" as="geometry"/>
                </mxCell>
                <mxCell id="70" value="N" style="text;html=1;strokeColor=none;fillColor=none;align=center;verticalAlign=middle;whiteSpace=wrap;rounded=0;" vertex="1" parent="33">
                    <mxGeometry x="73.5" y="886" width="60" height="30" as="geometry"/>
                </mxCell>
                <mxCell id="71" value="N" style="text;html=1;strokeColor=none;fillColor=none;align=center;verticalAlign=middle;whiteSpace=wrap;rounded=0;" vertex="1" parent="33">
                    <mxGeometry x="69" y="260" width="60" height="30" as="geometry"/>
                </mxCell>
                <mxCell id="72" style="edgeStyle=none;html=1;exitX=0.5;exitY=1;exitDx=0;exitDy=0;entryX=0.5;entryY=0;entryDx=0;entryDy=0;" edge="1" parent="33" source="73">
                    <mxGeometry relative="1" as="geometry">
                        <mxPoint x="399.5" y="1150" as="targetPoint"/>
                    </mxGeometry>
                </mxCell>
                <mxCell id="73" value="" style="ellipse;whiteSpace=wrap;html=1;aspect=fixed;" vertex="1" parent="33">
                    <mxGeometry x="385" y="1099" width="30" height="30" as="geometry"/>
                </mxCell>
                <mxCell id="74" value="แสดงจำนวนที่เหลือ&amp;nbsp;" style="shape=parallelogram;perimeter=parallelogramPerimeter;whiteSpace=wrap;html=1;fixedSize=1;" vertex="1" parent="33">
                    <mxGeometry x="220" y="223" width="160" height="31" as="geometry"/>
                </mxCell>
                <mxCell id="75" value="" style="ellipse;whiteSpace=wrap;html=1;aspect=fixed;" vertex="1" parent="33">
                    <mxGeometry x="110" y="450" width="20" height="20" as="geometry"/>
                </mxCell>
                <mxCell id="76" style="edgeStyle=none;html=1;exitX=0.5;exitY=1;exitDx=0;exitDy=0;entryX=0.5;entryY=0;entryDx=0;entryDy=0;" edge="1" parent="33" source="77" target="90">
                    <mxGeometry relative="1" as="geometry"/>
                </mxCell>
                <mxCell id="77" value="แสดงจำนวนที่เหลือ" style="shape=parallelogram;perimeter=parallelogramPerimeter;whiteSpace=wrap;html=1;fixedSize=1;" vertex="1" parent="33">
                    <mxGeometry x="220" y="529" width="160" height="31" as="geometry"/>
                </mxCell>
                <mxCell id="78" value="Y" style="text;html=1;strokeColor=none;fillColor=none;align=center;verticalAlign=middle;whiteSpace=wrap;rounded=0;" vertex="1" parent="33">
                    <mxGeometry x="150" y="520" width="60" height="30" as="geometry"/>
                </mxCell>
                <mxCell id="79" value="" style="edgeStyle=none;html=1;entryX=0.5;entryY=0;entryDx=0;entryDy=0;exitX=0.5;exitY=1;exitDx=0;exitDy=0;endArrow=none;" edge="1" parent="33" source="46" target="80">
                    <mxGeometry relative="1" as="geometry">
                        <mxPoint x="-601.5" y="1206" as="sourcePoint"/>
                        <mxPoint x="-603.5" y="1400" as="targetPoint"/>
                    </mxGeometry>
                </mxCell>
                <mxCell id="80" value="" style="ellipse;whiteSpace=wrap;html=1;aspect=fixed;" vertex="1" parent="33">
                    <mxGeometry x="108.5" y="740" width="20" height="20" as="geometry"/>
                </mxCell>
                <mxCell id="81" style="edgeStyle=none;html=1;exitX=0;exitY=0.5;exitDx=0;exitDy=0;entryX=1;entryY=0;entryDx=0;entryDy=0;" edge="1" parent="33" source="83" target="75">
                    <mxGeometry relative="1" as="geometry">
                        <mxPoint x="160" y="460" as="targetPoint"/>
                        <Array as="points">
                            <mxPoint x="160" y="313"/>
                            <mxPoint x="160" y="420"/>
                        </Array>
                    </mxGeometry>
                </mxCell>
                <mxCell id="82" style="edgeStyle=none;html=1;exitX=0.5;exitY=1;exitDx=0;exitDy=0;entryX=0.5;entryY=0;entryDx=0;entryDy=0;startArrow=none;" edge="1" parent="33" source="172" target="151">
                    <mxGeometry relative="1" as="geometry"/>
                </mxCell>
                <mxCell id="83" value="เหลือ/หมด" style="rhombus;whiteSpace=wrap;html=1;" vertex="1" parent="33">
                    <mxGeometry x="240" y="290" width="120" height="46" as="geometry"/>
                </mxCell>
                <mxCell id="84" style="edgeStyle=none;html=1;exitX=0.5;exitY=1;exitDx=0;exitDy=0;" edge="1" parent="33" target="88">
                    <mxGeometry relative="1" as="geometry">
                        <mxPoint x="299.9999999999998" y="401" as="sourcePoint"/>
                    </mxGeometry>
                </mxCell>
                <mxCell id="85" value="Y" style="text;html=1;strokeColor=none;fillColor=none;align=center;verticalAlign=middle;whiteSpace=wrap;rounded=0;" vertex="1" parent="33">
                    <mxGeometry x="261.5" y="430" width="60" height="30" as="geometry"/>
                </mxCell>
                <mxCell id="86" value="N" style="text;html=1;strokeColor=none;fillColor=none;align=center;verticalAlign=middle;whiteSpace=wrap;rounded=0;" vertex="1" parent="33">
                    <mxGeometry x="200" y="290" width="60" height="30" as="geometry"/>
                </mxCell>
                <mxCell id="87" style="edgeStyle=none;html=1;exitX=0.5;exitY=1;exitDx=0;exitDy=0;entryX=1;entryY=0.5;entryDx=0;entryDy=0;" edge="1" parent="33" source="88" target="75">
                    <mxGeometry relative="1" as="geometry">
                        <mxPoint x="130" y="470" as="targetPoint"/>
                        <Array as="points">
                            <mxPoint x="300" y="470"/>
                            <mxPoint x="150" y="470"/>
                        </Array>
                    </mxGeometry>
                </mxCell>
                <mxCell id="88" value="รับค่าจำนวนสินค้า = A" style="shape=parallelogram;perimeter=parallelogramPerimeter;whiteSpace=wrap;html=1;fixedSize=1;" vertex="1" parent="33">
                    <mxGeometry x="220" y="460" width="160" height="25" as="geometry"/>
                </mxCell>
                <mxCell id="89" style="edgeStyle=none;html=1;exitX=0;exitY=0.5;exitDx=0;exitDy=0;entryX=1;entryY=0;entryDx=0;entryDy=0;" edge="1" parent="33" source="90" target="80">
                    <mxGeometry relative="1" as="geometry">
                        <Array as="points">
                            <mxPoint x="160" y="603"/>
                            <mxPoint x="160" y="720"/>
                        </Array>
                    </mxGeometry>
                </mxCell>
                <mxCell id="90" value="เหลือ/หมด" style="rhombus;whiteSpace=wrap;html=1;" vertex="1" parent="33">
                    <mxGeometry x="240" y="580" width="120" height="46" as="geometry"/>
                </mxCell>
                <mxCell id="91" style="edgeStyle=none;html=1;exitX=0.5;exitY=1;exitDx=0;exitDy=0;entryX=0.5;entryY=0;entryDx=0;entryDy=0;startArrow=none;" edge="1" parent="33" source="162" target="152">
                    <mxGeometry relative="1" as="geometry">
                        <mxPoint x="300" y="650" as="targetPoint"/>
                    </mxGeometry>
                </mxCell>
                <mxCell id="92" value="Y" style="text;html=1;strokeColor=none;fillColor=none;align=center;verticalAlign=middle;whiteSpace=wrap;rounded=0;" vertex="1" parent="33">
                    <mxGeometry x="280" y="626" width="60" height="30" as="geometry"/>
                </mxCell>
                <mxCell id="93" value="N" style="text;html=1;strokeColor=none;fillColor=none;align=center;verticalAlign=middle;whiteSpace=wrap;rounded=0;" vertex="1" parent="33">
                    <mxGeometry x="195" y="580" width="60" height="30" as="geometry"/>
                </mxCell>
                <mxCell id="94" style="edgeStyle=none;html=1;exitX=0.5;exitY=1;exitDx=0;exitDy=0;" edge="1" parent="33" target="161">
                    <mxGeometry relative="1" as="geometry">
                        <mxPoint x="300" y="691" as="sourcePoint"/>
                    </mxGeometry>
                </mxCell>
                <mxCell id="95" style="edgeStyle=none;html=1;exitX=0.5;exitY=1;exitDx=0;exitDy=0;entryX=1;entryY=0.5;entryDx=0;entryDy=0;startArrow=none;" edge="1" parent="33" source="161">
                    <mxGeometry relative="1" as="geometry">
                        <mxPoint x="299" y="740" as="sourcePoint"/>
                        <mxPoint x="129" y="750" as="targetPoint"/>
                        <Array as="points">
                            <mxPoint x="299" y="760"/>
                            <mxPoint x="149" y="760"/>
                        </Array>
                    </mxGeometry>
                </mxCell>
                <mxCell id="96" value="เหลือ/หมด" style="rhombus;whiteSpace=wrap;html=1;" vertex="1" parent="33">
                    <mxGeometry x="201.5" y="886" width="120" height="46" as="geometry"/>
                </mxCell>
                <mxCell id="97" style="edgeStyle=none;html=1;exitX=0.5;exitY=1;exitDx=0;exitDy=0;startArrow=none;entryX=0.5;entryY=0;entryDx=0;entryDy=0;" edge="1" parent="33" source="175" target="185">
                    <mxGeometry relative="1" as="geometry">
                        <mxPoint x="262" y="980" as="targetPoint"/>
                    </mxGeometry>
                </mxCell>
                <mxCell id="98" value="Y" style="text;html=1;strokeColor=none;fillColor=none;align=center;verticalAlign=middle;whiteSpace=wrap;rounded=0;" vertex="1" parent="33">
                    <mxGeometry x="250" y="927" width="60" height="30" as="geometry"/>
                </mxCell>
                <mxCell id="99" value="N" style="text;html=1;strokeColor=none;fillColor=none;align=center;verticalAlign=middle;whiteSpace=wrap;rounded=0;" vertex="1" parent="33">
                    <mxGeometry x="155" y="876" width="60" height="30" as="geometry"/>
                </mxCell>
                <mxCell id="100" style="edgeStyle=none;html=1;exitX=0.5;exitY=1;exitDx=0;exitDy=0;entryX=1;entryY=1;entryDx=0;entryDy=0;" edge="1" parent="33" source="101" target="106">
                    <mxGeometry relative="1" as="geometry">
                        <Array as="points">
                            <mxPoint x="261" y="1060"/>
                            <mxPoint x="150" y="1060"/>
                        </Array>
                    </mxGeometry>
                </mxCell>
                <mxCell id="101" value="รับค่าจำนวนสินค้า = C" style="shape=parallelogram;perimeter=parallelogramPerimeter;whiteSpace=wrap;html=1;fixedSize=1;" vertex="1" parent="33">
                    <mxGeometry x="181.5" y="1050" width="160" height="25" as="geometry"/>
                </mxCell>
                <mxCell id="102" style="edgeStyle=none;html=1;exitX=0.5;exitY=1;exitDx=0;exitDy=0;" edge="1" parent="33" source="185" target="101">
                    <mxGeometry relative="1" as="geometry">
                        <mxPoint x="263" y="1023.5000000000002" as="sourcePoint"/>
                    </mxGeometry>
                </mxCell>
                <mxCell id="103" style="edgeStyle=none;html=1;exitX=0.5;exitY=1;exitDx=0;exitDy=0;entryX=0.5;entryY=0;entryDx=0;entryDy=0;" edge="1" parent="33" source="104" target="96">
                    <mxGeometry relative="1" as="geometry"/>
                </mxCell>
                <mxCell id="104" value="แสดงจำนวนที่เหลือ" style="shape=parallelogram;perimeter=parallelogramPerimeter;whiteSpace=wrap;html=1;fixedSize=1;" vertex="1" parent="33">
                    <mxGeometry x="180" y="837.5" width="160" height="31" as="geometry"/>
                </mxCell>
                <mxCell id="105" value="Y" style="text;html=1;strokeColor=none;fillColor=none;align=center;verticalAlign=middle;whiteSpace=wrap;rounded=0;" vertex="1" parent="33">
                    <mxGeometry x="141.5" y="825" width="60" height="30" as="geometry"/>
                </mxCell>
                <mxCell id="106" value="" style="ellipse;whiteSpace=wrap;html=1;aspect=fixed;" vertex="1" parent="33">
                    <mxGeometry x="108.5" y="1023.5" width="20" height="20" as="geometry"/>
                </mxCell>
                <mxCell id="107" style="edgeStyle=none;html=1;exitX=0;exitY=0.5;exitDx=0;exitDy=0;entryX=1;entryY=0;entryDx=0;entryDy=0;" edge="1" parent="33" source="96" target="106">
                    <mxGeometry relative="1" as="geometry">
                        <mxPoint x="140" y="1040" as="targetPoint"/>
                        <Array as="points">
                            <mxPoint x="150" y="909"/>
                            <mxPoint x="150" y="1010"/>
                        </Array>
                    </mxGeometry>
                </mxCell>
                <mxCell id="108" value="แสดงจำนวนที่เหลือ&amp;nbsp;" style="shape=parallelogram;perimeter=parallelogramPerimeter;whiteSpace=wrap;html=1;fixedSize=1;" vertex="1" parent="33">
                    <mxGeometry x="484.69" y="223" width="160" height="31" as="geometry"/>
                </mxCell>
                <mxCell id="109" style="edgeStyle=none;html=1;exitX=1;exitY=0.5;exitDx=0;exitDy=0;entryX=0;entryY=0;entryDx=0;entryDy=0;" edge="1" parent="33" source="110" target="132">
                    <mxGeometry relative="1" as="geometry">
                        <Array as="points">
                            <mxPoint x="700" y="313"/>
                            <mxPoint x="700" y="430"/>
                        </Array>
                    </mxGeometry>
                </mxCell>
                <mxCell id="110" value="เหลือ/หมด" style="rhombus;whiteSpace=wrap;html=1;" vertex="1" parent="33">
                    <mxGeometry x="504.69" y="290" width="120" height="46" as="geometry"/>
                </mxCell>
                <mxCell id="111" style="edgeStyle=none;html=1;exitX=0.5;exitY=1;exitDx=0;exitDy=0;entryX=0.5;entryY=0;entryDx=0;entryDy=0;startArrow=none;" edge="1" parent="33" source="159" target="158">
                    <mxGeometry relative="1" as="geometry">
                        <mxPoint x="565" y="360" as="targetPoint"/>
                    </mxGeometry>
                </mxCell>
                <mxCell id="112" style="edgeStyle=none;html=1;exitX=0.5;exitY=1;exitDx=0;exitDy=0;entryX=0;entryY=0.5;entryDx=0;entryDy=0;" edge="1" parent="33" source="113" target="132">
                    <mxGeometry relative="1" as="geometry">
                        <Array as="points">
                            <mxPoint x="565" y="470"/>
                            <mxPoint x="700" y="470"/>
                        </Array>
                    </mxGeometry>
                </mxCell>
                <mxCell id="113" value="รับค่าจำนวนสินค้า = D" style="shape=parallelogram;perimeter=parallelogramPerimeter;whiteSpace=wrap;html=1;fixedSize=1;" vertex="1" parent="33">
                    <mxGeometry x="485" y="460" width="160" height="25" as="geometry"/>
                </mxCell>
                <mxCell id="114" style="edgeStyle=none;html=1;exitX=0.5;exitY=1;exitDx=0;exitDy=0;startArrow=none;" edge="1" parent="33" source="158" target="113">
                    <mxGeometry relative="1" as="geometry">
                        <mxPoint x="564.69" y="401.0000000000002" as="sourcePoint"/>
                    </mxGeometry>
                </mxCell>
                <mxCell id="115" style="edgeStyle=none;html=1;exitX=0.5;exitY=1;exitDx=0;exitDy=0;" edge="1" parent="33" source="108">
                    <mxGeometry relative="1" as="geometry">
                        <mxPoint x="564.3958823529413" y="290" as="targetPoint"/>
                    </mxGeometry>
                </mxCell>
                <mxCell id="116" value="แสดงจำนวนที่เหลือ&amp;nbsp;" style="shape=parallelogram;perimeter=parallelogramPerimeter;whiteSpace=wrap;html=1;fixedSize=1;" vertex="1" parent="33">
                    <mxGeometry x="484.69" y="529" width="160" height="31" as="geometry"/>
                </mxCell>
                <mxCell id="117" style="edgeStyle=none;html=1;exitX=1;exitY=0.5;exitDx=0;exitDy=0;entryX=0;entryY=0.5;entryDx=0;entryDy=0;" edge="1" parent="33" source="118" target="134">
                    <mxGeometry relative="1" as="geometry">
                        <Array as="points">
                            <mxPoint x="680" y="619"/>
                            <mxPoint x="680" y="750"/>
                        </Array>
                    </mxGeometry>
                </mxCell>
                <mxCell id="118" value="เหลือ/หมด" style="rhombus;whiteSpace=wrap;html=1;" vertex="1" parent="33">
                    <mxGeometry x="504.69" y="596" width="120" height="46" as="geometry"/>
                </mxCell>
                <mxCell id="119" style="edgeStyle=none;html=1;exitX=0.5;exitY=1;exitDx=0;exitDy=0;entryX=0.5;entryY=0;entryDx=0;entryDy=0;startArrow=none;" edge="1" parent="33" source="154" target="153">
                    <mxGeometry relative="1" as="geometry">
                        <mxPoint x="565" y="660" as="targetPoint"/>
                    </mxGeometry>
                </mxCell>
                <mxCell id="120" style="edgeStyle=none;html=1;exitX=0.5;exitY=1;exitDx=0;exitDy=0;entryX=0;entryY=1;entryDx=0;entryDy=0;" edge="1" parent="33" source="121" target="134">
                    <mxGeometry relative="1" as="geometry">
                        <Array as="points">
                            <mxPoint x="565" y="780"/>
                            <mxPoint x="690" y="780"/>
                        </Array>
                    </mxGeometry>
                </mxCell>
                <mxCell id="121" value="รับค่าจำนวนสินค้า = E" style="shape=parallelogram;perimeter=parallelogramPerimeter;whiteSpace=wrap;html=1;fixedSize=1;" vertex="1" parent="33">
                    <mxGeometry x="484.69" y="770" width="160" height="25" as="geometry"/>
                </mxCell>
                <mxCell id="122" style="edgeStyle=none;html=1;exitX=0.5;exitY=1;exitDx=0;exitDy=0;startArrow=none;" edge="1" parent="33" source="153" target="121">
                    <mxGeometry relative="1" as="geometry">
                        <mxPoint x="564.69" y="707.0000000000002" as="sourcePoint"/>
                    </mxGeometry>
                </mxCell>
                <mxCell id="123" style="edgeStyle=none;html=1;exitX=0.5;exitY=1;exitDx=0;exitDy=0;" edge="1" parent="33" source="116">
                    <mxGeometry relative="1" as="geometry">
                        <mxPoint x="564.3958823529413" y="596" as="targetPoint"/>
                    </mxGeometry>
                </mxCell>
                <mxCell id="124" value="แสดงจำนวนที่เหลือ&amp;nbsp;" style="shape=parallelogram;perimeter=parallelogramPerimeter;whiteSpace=wrap;html=1;fixedSize=1;" vertex="1" parent="33">
                    <mxGeometry x="490" y="837.5" width="160" height="31" as="geometry"/>
                </mxCell>
                <mxCell id="125" style="edgeStyle=none;html=1;exitX=1;exitY=0.5;exitDx=0;exitDy=0;entryX=0;entryY=0;entryDx=0;entryDy=0;" edge="1" parent="33" source="126" target="136">
                    <mxGeometry relative="1" as="geometry">
                        <Array as="points">
                            <mxPoint x="700" y="928"/>
                            <mxPoint x="700" y="1000"/>
                        </Array>
                    </mxGeometry>
                </mxCell>
                <mxCell id="126" value="เหลือ/หมด" style="rhombus;whiteSpace=wrap;html=1;" vertex="1" parent="33">
                    <mxGeometry x="510" y="904.5" width="120" height="46" as="geometry"/>
                </mxCell>
                <mxCell id="127" style="edgeStyle=none;html=1;exitX=0.5;exitY=1;exitDx=0;exitDy=0;startArrow=none;" edge="1" parent="33" source="177">
                    <mxGeometry relative="1" as="geometry">
                        <mxPoint x="570" y="1000" as="targetPoint"/>
                    </mxGeometry>
                </mxCell>
                <mxCell id="128" style="edgeStyle=none;html=1;exitX=0.5;exitY=1;exitDx=0;exitDy=0;entryX=0;entryY=1;entryDx=0;entryDy=0;" edge="1" parent="33" source="129" target="136">
                    <mxGeometry relative="1" as="geometry">
                        <Array as="points">
                            <mxPoint x="570" y="1080"/>
                            <mxPoint x="720" y="1080"/>
                        </Array>
                    </mxGeometry>
                </mxCell>
                <mxCell id="129" value="รับค่าจำนวนสินค้า = F" style="shape=parallelogram;perimeter=parallelogramPerimeter;whiteSpace=wrap;html=1;fixedSize=1;" vertex="1" parent="33">
                    <mxGeometry x="490" y="1074" width="160" height="25" as="geometry"/>
                </mxCell>
                <mxCell id="130" style="edgeStyle=none;html=1;exitX=0.5;exitY=1;exitDx=0;exitDy=0;" edge="1" parent="33" source="186" target="129">
                    <mxGeometry relative="1" as="geometry">
                        <mxPoint x="570" y="1050.0000000000002" as="sourcePoint"/>
                    </mxGeometry>
                </mxCell>
                <mxCell id="131" style="edgeStyle=none;html=1;exitX=0.5;exitY=1;exitDx=0;exitDy=0;" edge="1" parent="33" source="124">
                    <mxGeometry relative="1" as="geometry">
                        <mxPoint x="569.7058823529412" y="904.5" as="targetPoint"/>
                    </mxGeometry>
                </mxCell>
                <mxCell id="132" value="" style="ellipse;whiteSpace=wrap;html=1;aspect=fixed;" vertex="1" parent="33">
                    <mxGeometry x="727.5" y="450" width="20" height="20" as="geometry"/>
                </mxCell>
                <mxCell id="133" value="" style="edgeStyle=none;html=1;endArrow=none;" edge="1" parent="33" source="51" target="132">
                    <mxGeometry relative="1" as="geometry">
                        <mxPoint x="17.5" y="909" as="sourcePoint"/>
                        <mxPoint x="17.5" y="1160" as="targetPoint"/>
                    </mxGeometry>
                </mxCell>
                <mxCell id="134" value="" style="ellipse;whiteSpace=wrap;html=1;aspect=fixed;" vertex="1" parent="33">
                    <mxGeometry x="727.5" y="760" width="20" height="20" as="geometry"/>
                </mxCell>
                <mxCell id="135" value="" style="edgeStyle=none;html=1;endArrow=none;" edge="1" parent="33" source="54" target="134">
                    <mxGeometry relative="1" as="geometry">
                        <mxPoint x="17.68256256005361" y="1205.9116012867107" as="sourcePoint"/>
                        <mxPoint x="19.787607106229643" y="1470.094691831806" as="targetPoint"/>
                    </mxGeometry>
                </mxCell>
                <mxCell id="136" value="" style="ellipse;whiteSpace=wrap;html=1;aspect=fixed;" vertex="1" parent="33">
                    <mxGeometry x="727.5" y="1023.5" width="20" height="20" as="geometry"/>
                </mxCell>
                <mxCell id="137" value="Y" style="text;html=1;strokeColor=none;fillColor=none;align=center;verticalAlign=middle;whiteSpace=wrap;rounded=0;" vertex="1" parent="33">
                    <mxGeometry x="514.69" y="330" width="60" height="30" as="geometry"/>
                </mxCell>
                <mxCell id="138" value="N" style="text;html=1;strokeColor=none;fillColor=none;align=center;verticalAlign=middle;whiteSpace=wrap;rounded=0;" vertex="1" parent="33">
                    <mxGeometry x="610" y="290" width="60" height="30" as="geometry"/>
                </mxCell>
                <mxCell id="139" value="Y" style="text;html=1;strokeColor=none;fillColor=none;align=center;verticalAlign=middle;whiteSpace=wrap;rounded=0;" vertex="1" parent="33">
                    <mxGeometry x="520" y="642" width="60" height="30" as="geometry"/>
                </mxCell>
                <mxCell id="140" value="N" style="text;html=1;strokeColor=none;fillColor=none;align=center;verticalAlign=middle;whiteSpace=wrap;rounded=0;" vertex="1" parent="33">
                    <mxGeometry x="620" y="596" width="60" height="30" as="geometry"/>
                </mxCell>
                <mxCell id="141" value="N" style="text;html=1;strokeColor=none;fillColor=none;align=center;verticalAlign=middle;whiteSpace=wrap;rounded=0;" vertex="1" parent="33">
                    <mxGeometry x="620" y="904.5" width="60" height="30" as="geometry"/>
                </mxCell>
                <mxCell id="142" value="Y" style="text;html=1;strokeColor=none;fillColor=none;align=center;verticalAlign=middle;whiteSpace=wrap;rounded=0;" vertex="1" parent="33">
                    <mxGeometry x="564.69" y="950.5" width="60" height="30" as="geometry"/>
                </mxCell>
                <mxCell id="143" style="edgeStyle=none;html=1;exitX=0.5;exitY=1;exitDx=0;exitDy=0;entryX=0.5;entryY=0;entryDx=0;entryDy=0;startArrow=none;" edge="1" parent="33" source="189" target="147">
                    <mxGeometry relative="1" as="geometry"/>
                </mxCell>
                <mxCell id="144" value="แสดงจำนวนสินค้า และราคารวม" style="shape=parallelogram;perimeter=parallelogramPerimeter;whiteSpace=wrap;html=1;fixedSize=1;" vertex="1" parent="33">
                    <mxGeometry x="303" y="1290" width="190.5" height="30" as="geometry"/>
                </mxCell>
                <mxCell id="145" style="edgeStyle=none;html=1;exitX=0.5;exitY=1;exitDx=0;exitDy=0;entryX=0.5;entryY=0;entryDx=0;entryDy=0;" edge="1" parent="33" source="187" target="218">
                    <mxGeometry relative="1" as="geometry">
                        <mxPoint x="398.25" y="1625" as="targetPoint"/>
                    </mxGeometry>
                </mxCell>
                <mxCell id="146" style="edgeStyle=none;html=1;exitX=0.5;exitY=1;exitDx=0;exitDy=0;" edge="1" parent="33" source="147" target="187">
                    <mxGeometry relative="1" as="geometry"/>
                </mxCell>
                <mxCell id="147" value="จ่ายเงิน" style="rounded=0;whiteSpace=wrap;html=1;" vertex="1" parent="33">
                    <mxGeometry x="338.25" y="1440" width="120" height="30" as="geometry"/>
                </mxCell>
                <mxCell id="148" value="คืนเงิน" style="rounded=0;whiteSpace=wrap;html=1;" vertex="1" parent="33">
                    <mxGeometry x="554.69" y="3105" width="120" height="30" as="geometry"/>
                </mxCell>
                <mxCell id="149" value="" style="ellipse;whiteSpace=wrap;html=1;aspect=fixed;" vertex="1" parent="33">
                    <mxGeometry x="768" y="1170" width="20" height="20" as="geometry"/>
                </mxCell>
                <mxCell id="150" style="edgeStyle=none;html=1;entryX=0.5;entryY=1;entryDx=0;entryDy=0;" edge="1" parent="33" target="149">
                    <mxGeometry relative="1" as="geometry">
                        <mxPoint x="710" y="1216" as="targetPoint"/>
                        <Array as="points">
                            <mxPoint x="900" y="1640"/>
                            <mxPoint x="900" y="1270"/>
                            <mxPoint x="900" y="1230"/>
                            <mxPoint x="790" y="1230"/>
                        </Array>
                        <mxPoint x="900" y="2920" as="sourcePoint"/>
                    </mxGeometry>
                </mxCell>
                <mxCell id="151" value="เลือกจำนวนเกิน/ไม่" style="rhombus;whiteSpace=wrap;html=1;" vertex="1" parent="33">
                    <mxGeometry x="230" y="395" width="140" height="40" as="geometry"/>
                </mxCell>
                <mxCell id="152" value="เลือกจำนวนเกิน/ไม่" style="rhombus;whiteSpace=wrap;html=1;" vertex="1" parent="33">
                    <mxGeometry x="230" y="690" width="140" height="40" as="geometry"/>
                </mxCell>
                <mxCell id="153" value="เลือกจำนวนเกิน/ไม่" style="rhombus;whiteSpace=wrap;html=1;" vertex="1" parent="33">
                    <mxGeometry x="494.69" y="700" width="140" height="40" as="geometry"/>
                </mxCell>
                <mxCell id="154" value="" style="ellipse;whiteSpace=wrap;html=1;aspect=fixed;" vertex="1" parent="33">
                    <mxGeometry x="554.69" y="660" width="20" height="20" as="geometry"/>
                </mxCell>
                <mxCell id="155" value="" style="edgeStyle=none;html=1;exitX=0.5;exitY=1;exitDx=0;exitDy=0;entryX=0.5;entryY=0;entryDx=0;entryDy=0;endArrow=none;" edge="1" parent="33" source="118" target="154">
                    <mxGeometry relative="1" as="geometry">
                        <mxPoint x="-155.30999999999995" y="1282.0000000000002" as="sourcePoint"/>
                        <mxPoint x="-155.30999999999995" y="1340" as="targetPoint"/>
                    </mxGeometry>
                </mxCell>
                <mxCell id="156" style="edgeStyle=none;html=1;exitX=1;exitY=0.5;exitDx=0;exitDy=0;entryX=1;entryY=0.5;entryDx=0;entryDy=0;" edge="1" parent="33" source="153" target="154">
                    <mxGeometry relative="1" as="geometry">
                        <mxPoint x="650" y="670" as="targetPoint"/>
                        <Array as="points">
                            <mxPoint x="650" y="720"/>
                            <mxPoint x="650" y="670"/>
                        </Array>
                    </mxGeometry>
                </mxCell>
                <mxCell id="157" style="edgeStyle=none;html=1;exitX=1;exitY=0.5;exitDx=0;exitDy=0;entryX=1;entryY=0.5;entryDx=0;entryDy=0;" edge="1" parent="33">
                    <mxGeometry relative="1" as="geometry">
                        <mxPoint x="574.69" y="370" as="targetPoint"/>
                        <mxPoint x="634.69" y="420" as="sourcePoint"/>
                        <Array as="points">
                            <mxPoint x="650" y="420"/>
                            <mxPoint x="650" y="370"/>
                        </Array>
                    </mxGeometry>
                </mxCell>
                <mxCell id="158" value="เลือกจำนวนเกิน/ไม่" style="rhombus;whiteSpace=wrap;html=1;" vertex="1" parent="33">
                    <mxGeometry x="493.5" y="400" width="140" height="40" as="geometry"/>
                </mxCell>
                <mxCell id="159" value="" style="ellipse;whiteSpace=wrap;html=1;aspect=fixed;" vertex="1" parent="33">
                    <mxGeometry x="554.69" y="360" width="20" height="20" as="geometry"/>
                </mxCell>
                <mxCell id="160" value="" style="edgeStyle=none;html=1;exitX=0.5;exitY=1;exitDx=0;exitDy=0;entryX=0.5;entryY=0;entryDx=0;entryDy=0;endArrow=none;" edge="1" parent="33" source="110" target="159">
                    <mxGeometry relative="1" as="geometry">
                        <mxPoint x="-155.30999999999995" y="976" as="sourcePoint"/>
                        <mxPoint x="-156.5" y="1040" as="targetPoint"/>
                    </mxGeometry>
                </mxCell>
                <mxCell id="161" value="รับค่าจำนวนสินค้า = B" style="shape=parallelogram;perimeter=parallelogramPerimeter;whiteSpace=wrap;html=1;fixedSize=1;" vertex="1" parent="33">
                    <mxGeometry x="220" y="755" width="160" height="25" as="geometry"/>
                </mxCell>
                <mxCell id="162" value="" style="ellipse;whiteSpace=wrap;html=1;aspect=fixed;" vertex="1" parent="33">
                    <mxGeometry x="290.00000000000006" y="647" width="20" height="20" as="geometry"/>
                </mxCell>
                <mxCell id="163" value="" style="edgeStyle=none;html=1;exitX=0.5;exitY=1;exitDx=0;exitDy=0;entryX=0.5;entryY=0;entryDx=0;entryDy=0;endArrow=none;" edge="1" parent="33" source="90" target="162">
                    <mxGeometry relative="1" as="geometry">
                        <mxPoint x="-420" y="1266" as="sourcePoint"/>
                        <mxPoint x="-420" y="1330" as="targetPoint"/>
                    </mxGeometry>
                </mxCell>
                <mxCell id="164" style="edgeStyle=none;html=1;exitX=0;exitY=0.5;exitDx=0;exitDy=0;entryX=0;entryY=0.5;entryDx=0;entryDy=0;" edge="1" parent="33" source="152" target="162">
                    <mxGeometry relative="1" as="geometry">
                        <mxPoint x="210" y="650" as="targetPoint"/>
                        <Array as="points">
                            <mxPoint x="210" y="710"/>
                            <mxPoint x="210" y="657"/>
                        </Array>
                    </mxGeometry>
                </mxCell>
                <mxCell id="165" value="Y" style="text;html=1;strokeColor=none;fillColor=none;align=center;verticalAlign=middle;whiteSpace=wrap;rounded=0;" vertex="1" parent="33">
                    <mxGeometry x="281.5" y="725" width="60" height="30" as="geometry"/>
                </mxCell>
                <mxCell id="166" value="N" style="text;html=1;strokeColor=none;fillColor=none;align=center;verticalAlign=middle;whiteSpace=wrap;rounded=0;" vertex="1" parent="33">
                    <mxGeometry x="195" y="690" width="60" height="30" as="geometry"/>
                </mxCell>
                <mxCell id="167" value="N" style="text;html=1;strokeColor=none;fillColor=none;align=center;verticalAlign=middle;whiteSpace=wrap;rounded=0;" vertex="1" parent="33">
                    <mxGeometry x="610" y="695" width="60" height="30" as="geometry"/>
                </mxCell>
                <mxCell id="168" value="Y" style="text;html=1;strokeColor=none;fillColor=none;align=center;verticalAlign=middle;whiteSpace=wrap;rounded=0;" vertex="1" parent="33">
                    <mxGeometry x="520" y="740" width="60" height="30" as="geometry"/>
                </mxCell>
                <mxCell id="169" value="Y" style="text;html=1;strokeColor=none;fillColor=none;align=center;verticalAlign=middle;whiteSpace=wrap;rounded=0;" vertex="1" parent="33">
                    <mxGeometry x="520" y="430" width="60" height="30" as="geometry"/>
                </mxCell>
                <mxCell id="170" value="N" style="text;html=1;strokeColor=none;fillColor=none;align=center;verticalAlign=middle;whiteSpace=wrap;rounded=0;" vertex="1" parent="33">
                    <mxGeometry x="610" y="395" width="60" height="30" as="geometry"/>
                </mxCell>
                <mxCell id="171" value="" style="edgeStyle=none;html=1;exitX=0.5;exitY=1;exitDx=0;exitDy=0;entryX=0.5;entryY=0;entryDx=0;entryDy=0;endArrow=none;" edge="1" parent="33" source="83" target="172">
                    <mxGeometry relative="1" as="geometry">
                        <mxPoint x="-420" y="976" as="sourcePoint"/>
                        <mxPoint x="-420" y="1035" as="targetPoint"/>
                    </mxGeometry>
                </mxCell>
                <mxCell id="172" value="" style="ellipse;whiteSpace=wrap;html=1;aspect=fixed;" vertex="1" parent="33">
                    <mxGeometry x="290.00000000000006" y="350" width="20" height="20" as="geometry"/>
                </mxCell>
                <mxCell id="173" style="edgeStyle=none;html=1;exitX=1;exitY=0.5;exitDx=0;exitDy=0;entryX=1;entryY=0.5;entryDx=0;entryDy=0;" edge="1" parent="33" source="151" target="172">
                    <mxGeometry relative="1" as="geometry">
                        <mxPoint x="350" y="360" as="targetPoint"/>
                        <Array as="points">
                            <mxPoint x="410" y="415"/>
                            <mxPoint x="410" y="360"/>
                        </Array>
                    </mxGeometry>
                </mxCell>
                <mxCell id="174" value="N" style="text;html=1;strokeColor=none;fillColor=none;align=center;verticalAlign=middle;whiteSpace=wrap;rounded=0;" vertex="1" parent="33">
                    <mxGeometry x="360" y="390" width="60" height="30" as="geometry"/>
                </mxCell>
                <mxCell id="175" value="" style="ellipse;whiteSpace=wrap;html=1;aspect=fixed;" vertex="1" parent="33">
                    <mxGeometry x="251.50000000000006" y="942" width="20" height="20" as="geometry"/>
                </mxCell>
                <mxCell id="176" value="" style="edgeStyle=none;html=1;exitX=0.5;exitY=1;exitDx=0;exitDy=0;entryX=0.5;entryY=0;entryDx=0;entryDy=0;endArrow=none;" edge="1" parent="33" source="96" target="175">
                    <mxGeometry relative="1" as="geometry">
                        <mxPoint x="-458.4999999999998" y="1572" as="sourcePoint"/>
                        <mxPoint x="-457" y="1632.5" as="targetPoint"/>
                    </mxGeometry>
                </mxCell>
                <mxCell id="177" value="" style="ellipse;whiteSpace=wrap;html=1;aspect=fixed;" vertex="1" parent="33">
                    <mxGeometry x="560" y="963.5" width="20" height="20" as="geometry"/>
                </mxCell>
                <mxCell id="178" value="" style="edgeStyle=none;html=1;exitX=0.5;exitY=1;exitDx=0;exitDy=0;entryX=0.5;entryY=0;entryDx=0;entryDy=0;endArrow=none;" edge="1" parent="33" source="126" target="177">
                    <mxGeometry relative="1" as="geometry">
                        <mxPoint x="-150" y="1590.5" as="sourcePoint"/>
                        <mxPoint x="-150" y="1659" as="targetPoint"/>
                    </mxGeometry>
                </mxCell>
                <mxCell id="179" style="edgeStyle=none;html=1;exitX=1;exitY=0.5;exitDx=0;exitDy=0;" edge="1" parent="33" source="185">
                    <mxGeometry relative="1" as="geometry">
                        <mxPoint x="270" y="952" as="targetPoint"/>
                        <mxPoint x="323" y="1008" as="sourcePoint"/>
                        <Array as="points">
                            <mxPoint x="370" y="1004"/>
                            <mxPoint x="370" y="952"/>
                        </Array>
                    </mxGeometry>
                </mxCell>
                <mxCell id="180" style="edgeStyle=none;html=1;exitX=1;exitY=0.5;exitDx=0;exitDy=0;entryX=1;entryY=0.5;entryDx=0;entryDy=0;" edge="1" parent="33" source="186" target="177">
                    <mxGeometry relative="1" as="geometry">
                        <mxPoint x="670" y="960" as="targetPoint"/>
                        <mxPoint x="630" y="1034.5" as="sourcePoint"/>
                        <Array as="points">
                            <mxPoint x="670" y="1020"/>
                            <mxPoint x="670" y="974"/>
                        </Array>
                    </mxGeometry>
                </mxCell>
                <mxCell id="181" value="N" style="text;html=1;strokeColor=none;fillColor=none;align=center;verticalAlign=middle;whiteSpace=wrap;rounded=0;" vertex="1" parent="33">
                    <mxGeometry x="306" y="980.5" width="60" height="30" as="geometry"/>
                </mxCell>
                <mxCell id="182" value="N" style="text;html=1;strokeColor=none;fillColor=none;align=center;verticalAlign=middle;whiteSpace=wrap;rounded=0;" vertex="1" parent="33">
                    <mxGeometry x="624.69" y="993.5" width="60" height="30" as="geometry"/>
                </mxCell>
                <mxCell id="183" value="Y" style="text;html=1;strokeColor=none;fillColor=none;align=center;verticalAlign=middle;whiteSpace=wrap;rounded=0;" vertex="1" parent="33">
                    <mxGeometry x="533.5" y="1045" width="60" height="30" as="geometry"/>
                </mxCell>
                <mxCell id="184" value="Y" style="text;html=1;strokeColor=none;fillColor=none;align=center;verticalAlign=middle;whiteSpace=wrap;rounded=0;" vertex="1" parent="33">
                    <mxGeometry x="243" y="1020" width="60" height="30" as="geometry"/>
                </mxCell>
                <mxCell id="185" value="เลือกจำนวนเกิน/ไม่" style="rhombus;whiteSpace=wrap;html=1;" vertex="1" parent="33">
                    <mxGeometry x="192" y="983.5" width="140" height="40" as="geometry"/>
                </mxCell>
                <mxCell id="186" value="เลือกจำนวนเกิน/ไม่" style="rhombus;whiteSpace=wrap;html=1;" vertex="1" parent="33">
                    <mxGeometry x="500" y="1000.5" width="140" height="40" as="geometry"/>
                </mxCell>
                <mxCell id="187" value="เงินคงเหลือที่ต้องจ่าย" style="rhombus;whiteSpace=wrap;html=1;" vertex="1" parent="33">
                    <mxGeometry x="318.25" y="1520" width="160" height="50" as="geometry"/>
                </mxCell>
                <mxCell id="188" value="" style="edgeStyle=none;html=1;exitX=0.5;exitY=1;exitDx=0;exitDy=0;entryX=0.5;entryY=0;entryDx=0;entryDy=0;endArrow=none;" edge="1" parent="33" source="144" target="189">
                    <mxGeometry relative="1" as="geometry">
                        <mxPoint x="-321.75" y="1980" as="sourcePoint"/>
                        <mxPoint x="-321.75" y="2100" as="targetPoint"/>
                    </mxGeometry>
                </mxCell>
                <mxCell id="189" value="" style="ellipse;whiteSpace=wrap;html=1;aspect=fixed;" vertex="1" parent="33">
                    <mxGeometry x="383" y="1370" width="30" height="30" as="geometry"/>
                </mxCell>
                <mxCell id="190" style="edgeStyle=none;html=1;exitX=1;exitY=0.5;exitDx=0;exitDy=0;entryX=1;entryY=0.5;entryDx=0;entryDy=0;" edge="1" parent="33" source="187" target="189">
                    <mxGeometry relative="1" as="geometry">
                        <mxPoint x="610" y="1380" as="targetPoint"/>
                        <Array as="points">
                            <mxPoint x="570" y="1545"/>
                            <mxPoint x="570" y="1385"/>
                        </Array>
                    </mxGeometry>
                </mxCell>
                <mxCell id="191" value="N" style="text;html=1;strokeColor=none;fillColor=none;align=center;verticalAlign=middle;whiteSpace=wrap;rounded=0;" vertex="1" parent="33">
                    <mxGeometry x="380" y="1570" width="60" height="30" as="geometry"/>
                </mxCell>
                <mxCell id="192" value="Y" style="text;html=1;strokeColor=none;fillColor=none;align=center;verticalAlign=middle;whiteSpace=wrap;rounded=0;" vertex="1" parent="33">
                    <mxGeometry x="474.69" y="1150" width="60" height="30" as="geometry"/>
                </mxCell>
                <mxCell id="193" value="Y" style="text;html=1;strokeColor=none;fillColor=none;align=center;verticalAlign=middle;whiteSpace=wrap;rounded=0;" vertex="1" parent="33">
                    <mxGeometry x="473.5" y="1520" width="60" height="30" as="geometry"/>
                </mxCell>
                <mxCell id="194" value="N" style="edgeStyle=none;html=1;entryX=0.5;entryY=0;entryDx=0;entryDy=0;" edge="1" parent="33" source="196" target="198">
                    <mxGeometry relative="1" as="geometry">
                        <mxPoint x="396.9022556390978" y="1850.9022556390978" as="targetPoint"/>
                    </mxGeometry>
                </mxCell>
                <mxCell id="195" value="Y" style="edgeStyle=none;html=1;endArrow=classic;endFill=1;" edge="1" parent="33" source="196" target="221">
                    <mxGeometry relative="1" as="geometry"/>
                </mxCell>
                <mxCell id="196" value="มากกว่า1000บาท&lt;br&gt;แบงค์พอ" style="rhombus;whiteSpace=wrap;html=1;" vertex="1" parent="33">
                    <mxGeometry x="333" y="1743" width="132" height="80" as="geometry"/>
                </mxCell>
                <mxCell id="197" value="N" style="edgeStyle=none;html=1;exitX=0.5;exitY=1;exitDx=0;exitDy=0;" edge="1" parent="33" source="198" target="201">
                    <mxGeometry relative="1" as="geometry"/>
                </mxCell>
                <mxCell id="198" value="มากกว่า500บาท&lt;br&gt;แบงค์พอ" style="rhombus;whiteSpace=wrap;html=1;" vertex="1" parent="33">
                    <mxGeometry x="332" y="1868" width="132" height="80" as="geometry"/>
                </mxCell>
                <mxCell id="199" value="มากกว่า50บาท&lt;br&gt;แบงค์พอ" style="rhombus;whiteSpace=wrap;html=1;" vertex="1" parent="33">
                    <mxGeometry x="333" y="2175" width="132" height="80" as="geometry"/>
                </mxCell>
                <mxCell id="200" value="N" style="edgeStyle=none;html=1;exitX=0.5;exitY=1;exitDx=0;exitDy=0;entryX=0.5;entryY=0;entryDx=0;entryDy=0;" edge="1" parent="33" source="201" target="199">
                    <mxGeometry relative="1" as="geometry"/>
                </mxCell>
                <mxCell id="201" value="มากกว่า100บาท&lt;br&gt;แบงค์พอ" style="rhombus;whiteSpace=wrap;html=1;" vertex="1" parent="33">
                    <mxGeometry x="333" y="2010" width="132" height="80" as="geometry"/>
                </mxCell>
                <mxCell id="202" value="N" style="edgeStyle=none;html=1;exitX=0.5;exitY=1;exitDx=0;exitDy=0;entryX=0.5;entryY=0;entryDx=0;entryDy=0;endArrow=classic;endFill=1;" edge="1" parent="33" source="203" target="205">
                    <mxGeometry relative="1" as="geometry"/>
                </mxCell>
                <mxCell id="203" value="มากกว่า20บาท&lt;br&gt;แบงค์พอ" style="rhombus;whiteSpace=wrap;html=1;" vertex="1" parent="33">
                    <mxGeometry x="332" y="2330" width="132" height="80" as="geometry"/>
                </mxCell>
                <mxCell id="204" value="N" style="edgeStyle=none;html=1;exitX=0.5;exitY=1;exitDx=0;exitDy=0;entryX=0.5;entryY=0;entryDx=0;entryDy=0;endArrow=classic;endFill=1;" edge="1" parent="33" source="205" target="207">
                    <mxGeometry relative="1" as="geometry"/>
                </mxCell>
                <mxCell id="205" value="มากกว่า10บาท&lt;br&gt;เหรียญพอ" style="rhombus;whiteSpace=wrap;html=1;" vertex="1" parent="33">
                    <mxGeometry x="333" y="2470" width="132" height="80" as="geometry"/>
                </mxCell>
                <mxCell id="206" value="N" style="edgeStyle=none;html=1;exitX=0.5;exitY=1;exitDx=0;exitDy=0;entryX=0.5;entryY=0;entryDx=0;entryDy=0;endArrow=classic;endFill=1;" edge="1" parent="33" source="207" target="209">
                    <mxGeometry relative="1" as="geometry"/>
                </mxCell>
                <mxCell id="207" value="มากกว่า5บาท&lt;br&gt;เหรียญพอ" style="rhombus;whiteSpace=wrap;html=1;" vertex="1" parent="33">
                    <mxGeometry x="333" y="2640" width="132" height="80" as="geometry"/>
                </mxCell>
                <mxCell id="208" value="N" style="edgeStyle=none;html=1;exitX=0.5;exitY=1;exitDx=0;exitDy=0;endArrow=classic;endFill=1;" edge="1" parent="33" source="209" target="211">
                    <mxGeometry relative="1" as="geometry"/>
                </mxCell>
                <mxCell id="209" value="มากกว่า1บาท&lt;br&gt;เหรียญพอ" style="rhombus;whiteSpace=wrap;html=1;" vertex="1" parent="33">
                    <mxGeometry x="335" y="2820" width="132" height="80" as="geometry"/>
                </mxCell>
                <mxCell id="210" value="Y" style="edgeStyle=none;html=1;exitX=0.5;exitY=1;exitDx=0;exitDy=0;entryX=0.5;entryY=0;entryDx=0;entryDy=0;endArrow=classic;endFill=1;" edge="1" parent="33" source="211" target="216">
                    <mxGeometry relative="1" as="geometry"/>
                </mxCell>
                <mxCell id="211" value="ตรวจสอบเงินทอน" style="rhombus;whiteSpace=wrap;html=1;" vertex="1" parent="33">
                    <mxGeometry x="334" y="2958" width="132" height="80" as="geometry"/>
                </mxCell>
                <mxCell id="212" style="edgeStyle=none;html=1;exitX=0.5;exitY=1;exitDx=0;exitDy=0;entryX=0.5;entryY=0;entryDx=0;entryDy=0;endArrow=classic;endFill=1;" edge="1" parent="33" source="213" target="148">
                    <mxGeometry relative="1" as="geometry"/>
                </mxCell>
                <mxCell id="213" value="ทอนเงินไม่สำเร็จเงินไม่เพียงพอ" style="rounded=0;whiteSpace=wrap;html=1;" vertex="1" parent="33">
                    <mxGeometry x="554.69" y="2975" width="120" height="45" as="geometry"/>
                </mxCell>
                <mxCell id="214" value="N" style="edgeStyle=none;html=1;exitX=1;exitY=0.5;exitDx=0;exitDy=0;endArrow=classic;endFill=1;entryX=0;entryY=0.5;entryDx=0;entryDy=0;" edge="1" parent="33" source="211" target="213">
                    <mxGeometry relative="1" as="geometry">
                        <mxPoint x="520" y="2989.3076923076924" as="targetPoint"/>
                    </mxGeometry>
                </mxCell>
                <mxCell id="215" style="edgeStyle=none;html=1;exitX=0.5;exitY=1;exitDx=0;exitDy=0;entryX=0.5;entryY=0;entryDx=0;entryDy=0;endArrow=classic;endFill=1;" edge="1" parent="33" source="216" target="35">
                    <mxGeometry relative="1" as="geometry"/>
                </mxCell>
                <mxCell id="216" value="ทอนเงินสำเร็จ" style="rounded=0;whiteSpace=wrap;html=1;" vertex="1" parent="33">
                    <mxGeometry x="338.25000000000006" y="3092.5" width="120" height="45" as="geometry"/>
                </mxCell>
                <mxCell id="217" style="edgeStyle=none;html=1;exitX=0.5;exitY=1;exitDx=0;exitDy=0;endArrow=classic;endFill=1;" edge="1" parent="33" source="218" target="196">
                    <mxGeometry relative="1" as="geometry"/>
                </mxCell>
                <mxCell id="218" value="จำนวนที่ต้องทอนเงิน" style="shape=parallelogram;perimeter=parallelogramPerimeter;whiteSpace=wrap;html=1;fixedSize=1;" vertex="1" parent="33">
                    <mxGeometry x="328" y="1649" width="140" height="50" as="geometry"/>
                </mxCell>
                <mxCell id="219" value="" style="ellipse;whiteSpace=wrap;html=1;aspect=fixed;" vertex="1" parent="33">
                    <mxGeometry x="383.25" y="1595" width="30" height="30" as="geometry"/>
                </mxCell>
                <mxCell id="220" style="edgeStyle=none;html=1;exitX=1;exitY=0.5;exitDx=0;exitDy=0;entryX=0;entryY=0.5;entryDx=0;entryDy=0;endArrow=classic;endFill=1;" edge="1" parent="33" source="221" target="222">
                    <mxGeometry relative="1" as="geometry"/>
                </mxCell>
                <mxCell id="221" value="ตรวบสอบจำนวนเงิน" style="whiteSpace=wrap;html=1;" vertex="1" parent="33">
                    <mxGeometry x="525" y="1760" width="120" height="40" as="geometry"/>
                </mxCell>
                <mxCell id="222" value="เงินที่ทอน-1000" style="shape=parallelogram;perimeter=parallelogramPerimeter;whiteSpace=wrap;html=1;fixedSize=1;" vertex="1" parent="33">
                    <mxGeometry x="684.69" y="1760" width="120" height="40" as="geometry"/>
                </mxCell>
                <mxCell id="223" value="Y" style="edgeStyle=none;html=1;endArrow=classic;endFill=1;" edge="1" parent="33" target="224">
                    <mxGeometry relative="1" as="geometry">
                        <mxPoint x="463.99908091123325" y="1907.9630793401411" as="sourcePoint"/>
                    </mxGeometry>
                </mxCell>
                <mxCell id="224" value="ตรวบสอบจำนวนเงิน" style="whiteSpace=wrap;html=1;" vertex="1" parent="33">
                    <mxGeometry x="525.71" y="1886" width="120" height="40" as="geometry"/>
                </mxCell>
                <mxCell id="225" value="เงินที่ทอน-500" style="shape=parallelogram;perimeter=parallelogramPerimeter;whiteSpace=wrap;html=1;fixedSize=1;" vertex="1" parent="33">
                    <mxGeometry x="685.4000000000001" y="1886" width="120" height="40" as="geometry"/>
                </mxCell>
                <mxCell id="226" style="edgeStyle=none;html=1;exitX=1;exitY=0.5;exitDx=0;exitDy=0;entryX=0;entryY=0.5;entryDx=0;entryDy=0;endArrow=classic;endFill=1;" edge="1" parent="33" source="224" target="225">
                    <mxGeometry relative="1" as="geometry"/>
                </mxCell>
                <mxCell id="227" value="Y" style="edgeStyle=none;html=1;endArrow=classic;endFill=1;" edge="1" parent="33" target="228">
                    <mxGeometry relative="1" as="geometry">
                        <mxPoint x="464.99908091123325" y="2049.963079340141" as="sourcePoint"/>
                    </mxGeometry>
                </mxCell>
                <mxCell id="228" value="ตรวบสอบจำนวนเงิน" style="whiteSpace=wrap;html=1;" vertex="1" parent="33">
                    <mxGeometry x="526.71" y="2028" width="120" height="40" as="geometry"/>
                </mxCell>
                <mxCell id="229" value="เงินที่ทอน-100" style="shape=parallelogram;perimeter=parallelogramPerimeter;whiteSpace=wrap;html=1;fixedSize=1;" vertex="1" parent="33">
                    <mxGeometry x="686.4000000000001" y="2028" width="120" height="40" as="geometry"/>
                </mxCell>
                <mxCell id="230" style="edgeStyle=none;html=1;exitX=1;exitY=0.5;exitDx=0;exitDy=0;entryX=0;entryY=0.5;entryDx=0;entryDy=0;endArrow=classic;endFill=1;" edge="1" parent="33" source="228" target="229">
                    <mxGeometry relative="1" as="geometry"/>
                </mxCell>
                <mxCell id="231" value="Y" style="edgeStyle=none;html=1;endArrow=classic;endFill=1;" edge="1" parent="33" target="232">
                    <mxGeometry relative="1" as="geometry">
                        <mxPoint x="464.999080911233" y="2214.963079340141" as="sourcePoint"/>
                    </mxGeometry>
                </mxCell>
                <mxCell id="232" value="ตรวบสอบจำนวนเงิน" style="whiteSpace=wrap;html=1;" vertex="1" parent="33">
                    <mxGeometry x="526.71" y="2193" width="120" height="40" as="geometry"/>
                </mxCell>
                <mxCell id="233" value="เงินที่ทอน-50" style="shape=parallelogram;perimeter=parallelogramPerimeter;whiteSpace=wrap;html=1;fixedSize=1;" vertex="1" parent="33">
                    <mxGeometry x="686.4000000000001" y="2193" width="120" height="40" as="geometry"/>
                </mxCell>
                <mxCell id="234" style="edgeStyle=none;html=1;exitX=1;exitY=0.5;exitDx=0;exitDy=0;entryX=0;entryY=0.5;entryDx=0;entryDy=0;endArrow=classic;endFill=1;" edge="1" parent="33" source="232" target="233">
                    <mxGeometry relative="1" as="geometry"/>
                </mxCell>
                <mxCell id="235" value="Y" style="edgeStyle=none;html=1;endArrow=classic;endFill=1;" edge="1" parent="33" target="236">
                    <mxGeometry relative="1" as="geometry">
                        <mxPoint x="463.28908091123304" y="2369.963079340141" as="sourcePoint"/>
                    </mxGeometry>
                </mxCell>
                <mxCell id="236" value="ตรวบสอบจำนวนเงิน" style="whiteSpace=wrap;html=1;" vertex="1" parent="33">
                    <mxGeometry x="525" y="2348" width="120" height="40" as="geometry"/>
                </mxCell>
                <mxCell id="237" value="เงินที่ทอน-20" style="shape=parallelogram;perimeter=parallelogramPerimeter;whiteSpace=wrap;html=1;fixedSize=1;" vertex="1" parent="33">
                    <mxGeometry x="684.69" y="2348" width="120" height="40" as="geometry"/>
                </mxCell>
                <mxCell id="238" style="edgeStyle=none;html=1;exitX=1;exitY=0.5;exitDx=0;exitDy=0;entryX=0;entryY=0.5;entryDx=0;entryDy=0;endArrow=classic;endFill=1;" edge="1" parent="33" source="236" target="237">
                    <mxGeometry relative="1" as="geometry"/>
                </mxCell>
                <mxCell id="239" value="Y" style="edgeStyle=none;html=1;endArrow=classic;endFill=1;" edge="1" parent="33" target="240">
                    <mxGeometry relative="1" as="geometry">
                        <mxPoint x="464.99908091123325" y="2509.963079340141" as="sourcePoint"/>
                    </mxGeometry>
                </mxCell>
                <mxCell id="240" value="ตรวบสอบจำนวนเงิน" style="whiteSpace=wrap;html=1;" vertex="1" parent="33">
                    <mxGeometry x="526.71" y="2488" width="120" height="40" as="geometry"/>
                </mxCell>
                <mxCell id="241" value="เงินที่ทอน-10" style="shape=parallelogram;perimeter=parallelogramPerimeter;whiteSpace=wrap;html=1;fixedSize=1;" vertex="1" parent="33">
                    <mxGeometry x="686.4000000000001" y="2488" width="120" height="40" as="geometry"/>
                </mxCell>
                <mxCell id="242" style="edgeStyle=none;html=1;exitX=1;exitY=0.5;exitDx=0;exitDy=0;entryX=0;entryY=0.5;entryDx=0;entryDy=0;endArrow=classic;endFill=1;" edge="1" parent="33" source="240" target="241">
                    <mxGeometry relative="1" as="geometry"/>
                </mxCell>
                <mxCell id="243" value="Y" style="edgeStyle=none;html=1;endArrow=classic;endFill=1;" edge="1" parent="33" target="244">
                    <mxGeometry relative="1" as="geometry">
                        <mxPoint x="465.2990809112332" y="2679.963079340141" as="sourcePoint"/>
                    </mxGeometry>
                </mxCell>
                <mxCell id="244" value="ตรวบสอบจำนวนเงิน" style="whiteSpace=wrap;html=1;" vertex="1" parent="33">
                    <mxGeometry x="527.01" y="2658" width="120" height="40" as="geometry"/>
                </mxCell>
                <mxCell id="245" value="เงินที่ทอน-5" style="shape=parallelogram;perimeter=parallelogramPerimeter;whiteSpace=wrap;html=1;fixedSize=1;" vertex="1" parent="33">
                    <mxGeometry x="686.7" y="2658" width="120" height="40" as="geometry"/>
                </mxCell>
                <mxCell id="246" style="edgeStyle=none;html=1;exitX=1;exitY=0.5;exitDx=0;exitDy=0;entryX=0;entryY=0.5;entryDx=0;entryDy=0;endArrow=classic;endFill=1;" edge="1" parent="33" source="244" target="245">
                    <mxGeometry relative="1" as="geometry"/>
                </mxCell>
                <mxCell id="247" value="Y" style="edgeStyle=none;html=1;endArrow=classic;endFill=1;" edge="1" parent="33" target="248">
                    <mxGeometry relative="1" as="geometry">
                        <mxPoint x="464.9990809112334" y="2859.963079340141" as="sourcePoint"/>
                    </mxGeometry>
                </mxCell>
                <mxCell id="248" value="ตรวบสอบจำนวนเงิน" style="whiteSpace=wrap;html=1;" vertex="1" parent="33">
                    <mxGeometry x="526.71" y="2838" width="120" height="40" as="geometry"/>
                </mxCell>
                <mxCell id="249" value="เงินที่ทอน-1" style="shape=parallelogram;perimeter=parallelogramPerimeter;whiteSpace=wrap;html=1;fixedSize=1;" vertex="1" parent="33">
                    <mxGeometry x="686.4000000000001" y="2838" width="120" height="40" as="geometry"/>
                </mxCell>
                <mxCell id="250" style="edgeStyle=none;html=1;exitX=1;exitY=0.5;exitDx=0;exitDy=0;entryX=0;entryY=0.5;entryDx=0;entryDy=0;endArrow=classic;endFill=1;" edge="1" parent="33" source="248" target="249">
                    <mxGeometry relative="1" as="geometry"/>
                </mxCell>
                <mxCell id="251" style="edgeStyle=none;html=1;exitX=1;exitY=0.5;exitDx=0;exitDy=0;endArrow=classic;endFill=1;entryX=1;entryY=0.5;entryDx=0;entryDy=0;" edge="1" parent="33" source="222" target="218">
                    <mxGeometry relative="1" as="geometry">
                        <mxPoint x="820" y="1670" as="targetPoint"/>
                        <Array as="points">
                            <mxPoint x="820" y="1780"/>
                            <mxPoint x="820" y="1674"/>
                        </Array>
                    </mxGeometry>
                </mxCell>
                <mxCell id="252" style="edgeStyle=none;html=1;exitX=1;exitY=0.5;exitDx=0;exitDy=0;endArrow=classic;endFill=1;entryX=1;entryY=0.5;entryDx=0;entryDy=0;" edge="1" parent="33" source="225" target="218">
                    <mxGeometry relative="1" as="geometry">
                        <mxPoint x="830" y="1650" as="targetPoint"/>
                        <Array as="points">
                            <mxPoint x="830" y="1906"/>
                            <mxPoint x="830" y="1674"/>
                        </Array>
                    </mxGeometry>
                </mxCell>
                <mxCell id="253" style="edgeStyle=none;html=1;exitX=1;exitY=0.5;exitDx=0;exitDy=0;endArrow=classic;endFill=1;entryX=1;entryY=0.5;entryDx=0;entryDy=0;" edge="1" parent="33" source="229" target="218">
                    <mxGeometry relative="1" as="geometry">
                        <mxPoint x="840" y="1640" as="targetPoint"/>
                        <Array as="points">
                            <mxPoint x="840" y="2048"/>
                            <mxPoint x="840" y="1674"/>
                        </Array>
                    </mxGeometry>
                </mxCell>
                <mxCell id="254" style="edgeStyle=none;html=1;exitX=1;exitY=0.5;exitDx=0;exitDy=0;endArrow=classic;endFill=1;entryX=1;entryY=0.5;entryDx=0;entryDy=0;" edge="1" parent="33" source="233" target="218">
                    <mxGeometry relative="1" as="geometry">
                        <mxPoint x="750" y="1634" as="targetPoint"/>
                        <mxPoint x="796.4000000000001" y="2207" as="sourcePoint"/>
                        <Array as="points">
                            <mxPoint x="850" y="2213"/>
                            <mxPoint x="850" y="1674"/>
                        </Array>
                    </mxGeometry>
                </mxCell>
                <mxCell id="255" style="edgeStyle=none;html=1;exitX=1;exitY=0.5;exitDx=0;exitDy=0;endArrow=classic;endFill=1;entryX=1;entryY=0.5;entryDx=0;entryDy=0;" edge="1" parent="33" source="237" target="218">
                    <mxGeometry relative="1" as="geometry">
                        <mxPoint x="860" y="1630" as="targetPoint"/>
                        <mxPoint x="788.69" y="2368" as="sourcePoint"/>
                        <Array as="points">
                            <mxPoint x="860" y="2368"/>
                            <mxPoint x="860" y="1674"/>
                        </Array>
                    </mxGeometry>
                </mxCell>
                <mxCell id="256" style="edgeStyle=none;html=1;exitX=1;exitY=0.5;exitDx=0;exitDy=0;endArrow=classic;endFill=1;entryX=1;entryY=0.5;entryDx=0;entryDy=0;" edge="1" parent="33" source="241" target="218">
                    <mxGeometry relative="1" as="geometry">
                        <mxPoint x="870" y="1630" as="targetPoint"/>
                        <mxPoint x="796.4000000000001" y="2502" as="sourcePoint"/>
                        <Array as="points">
                            <mxPoint x="870" y="2508"/>
                            <mxPoint x="870" y="2390"/>
                            <mxPoint x="870" y="1674"/>
                        </Array>
                    </mxGeometry>
                </mxCell>
                <mxCell id="257" style="edgeStyle=none;html=1;exitX=1;exitY=0.5;exitDx=0;exitDy=0;endArrow=classic;endFill=1;entryX=1;entryY=0.5;entryDx=0;entryDy=0;" edge="1" parent="33" source="245" target="218">
                    <mxGeometry relative="1" as="geometry">
                        <mxPoint x="880" y="1617.714378720238" as="targetPoint"/>
                        <Array as="points">
                            <mxPoint x="880" y="2678"/>
                            <mxPoint x="880" y="1674"/>
                        </Array>
                    </mxGeometry>
                </mxCell>
                <mxCell id="258" style="edgeStyle=none;html=1;exitX=1;exitY=0.5;exitDx=0;exitDy=0;endArrow=classic;endFill=1;entryX=1;entryY=0.5;entryDx=0;entryDy=0;" edge="1" parent="33" source="249" target="218">
                    <mxGeometry relative="1" as="geometry">
                        <mxPoint x="890" y="1670" as="targetPoint"/>
                        <Array as="points">
                            <mxPoint x="890" y="2860"/>
                            <mxPoint x="890" y="2590"/>
                            <mxPoint x="890" y="2110"/>
                            <mxPoint x="890" y="1674"/>
                        </Array>
                    </mxGeometry>
                </mxCell>
                <mxCell id="261" style="edgeStyle=none;html=1;exitX=0.5;exitY=1;exitDx=0;exitDy=0;" edge="1" parent="33" source="74" target="83">
                    <mxGeometry relative="1" as="geometry">
                        <mxPoint x="299.7058823529412" y="270" as="targetPoint"/>
                    </mxGeometry>
                </mxCell>
                <mxCell id="259" value="&lt;font data-font-src=&quot;https://fonts.googleapis.com/css?family=Sarabun&quot; face=&quot;Sarabun&quot;&gt;โจทย์ปัญหา&lt;/font&gt;" style="swimlane;whiteSpace=wrap;html=1;" vertex="1" parent="WIyWlLk6GJQsqaUBKTNV-1">
                    <mxGeometry x="-720" y="320" width="645" height="310" as="geometry"/>
                </mxCell>
                <mxCell id="260" value="&lt;p style=&quot;line-height: 120%;&quot;&gt;&lt;font data-font-src=&quot;https://fonts.googleapis.com/css?family=Sarabun&quot; face=&quot;Sarabun&quot; style=&quot;font-size: 14px;&quot;&gt;&lt;b&gt;&lt;u&gt;โจทย์&lt;/u&gt;&lt;/b&gt; จงเขียน Flowchart เพื่อแสดงขั้นตอนการทำงาน ของเครื่องขายน้ำอัตโนมัติ โดยเครื่องมีการทำงานดังนี้&lt;br&gt;&amp;nbsp; &amp;nbsp; - เครื่องมีสินค้าประเภท &quot;เครื่องดื่ม&quot; อยู่ 3 อย่างคือ กาแฟอเมริกาโน่ร้อน , ลาเต้เย็น , น้ำเปล่า&lt;br&gt;&amp;nbsp; &amp;nbsp; - เครื่องมีสินค้าประเภท &quot;ขนม&quot; อยู่ 3 อย่างคือ ขนมชั้น, ฝอยทอง, ลำไยอบแห้ง&lt;br&gt;&amp;nbsp; &amp;nbsp; - เครื่องสามารถทอนเงินลูกค้าได้ทั้ง เหรียญ และ ธนบัตร (โดยจะต้องเลือกทอนเงินด้วยธนบัตรใหญ่ก่อน)&lt;br&gt;&lt;/font&gt;&lt;span style=&quot;font-family: Sarabun; background-color: initial;&quot;&gt;&amp;nbsp; &amp;nbsp; &amp;nbsp; &amp;nbsp;กรณีที่มีเงินทอนไม่พอ ให้แจ้งลูกค้าก่อนซื้อสินค้าว่า &quot;เครื่องไม่มีเงิน&quot;&lt;br&gt;&amp;nbsp; &amp;nbsp; -&amp;nbsp; เครื่องสามารถแสดงจำนวนสินค้าคงเหลือ ราคาสินค้า จำนวนสินค้าที่ลูกค้าสั่ง และรวมราคาที่ลูกค้าต้องจ่าย&lt;br&gt;&lt;/span&gt;&lt;span style=&quot;font-family: Sarabun; background-color: initial;&quot;&gt;&lt;b&gt;&lt;u&gt;เหตุการณ์&lt;/u&gt;&lt;/b&gt;&lt;br&gt;&amp;nbsp; &amp;nbsp; &lt;b&gt;ลูกค้า&lt;/b&gt;สามารถเลือกสินค้ากี่ชิ้นก็ได้ จนกว่าลูกค้าจะพอใจ เมื่อพอใจแล้ว สามารถกดปุ่ม &quot;ตกลง&quot; เพื่อคำนวณ&lt;br&gt;ยอดเงินทั้งหมดที่ลูกค้าต้องชำระ และลูกค้าต้องใส่เงินไปตามจำนวน(หรือมากกว่า) เพื่อทำการชำระสินค้า&lt;br&gt;และตู้ก็จะทอนเงินให้ลูกค้า พร้อมส่งสินค้าให้ลูกค้า&lt;br&gt;&amp;nbsp; &amp;nbsp; &lt;b&gt;แอ็ดมิน&lt;/b&gt;สามารถได้รับการแจ้งเตือนทุกครั้งที่มีลูกค้ากดซื้อสินค้าหน้าตู้ โดยจะมีข้อมูลสรุปกำไรทั้งหมด จำนวน&lt;br&gt;เงินทอนคงเหลือ(ว่าเหลือแต่ละเหรียญและธนบัตรอยู่ทั้งหมดอย่างละเท่าไหร่)&lt;/span&gt;&lt;/p&gt;" style="text;html=1;align=left;verticalAlign=top;resizable=0;points=[];autosize=1;strokeColor=none;fillColor=none;fontSize=14;" vertex="1" parent="259">
                    <mxGeometry x="15" y="20" width="630" height="260" as="geometry"/>
                </mxCell>
                <mxCell id="262" value="N" style="edgeStyle=none;html=1;exitX=0.5;exitY=1;exitDx=0;exitDy=0;" edge="1" parent="WIyWlLk6GJQsqaUBKTNV-1" source="199">
                    <mxGeometry relative="1" as="geometry">
                        <mxPoint x="-321.47368421052624" y="2990" as="targetPoint"/>
                    </mxGeometry>
                </mxCell>
                <mxCell id="263" style="edgeStyle=none;html=1;exitX=1;exitY=0.5;exitDx=0;exitDy=0;endArrow=none;endFill=0;" edge="1" parent="WIyWlLk6GJQsqaUBKTNV-1" source="148">
                    <mxGeometry relative="1" as="geometry">
                        <mxPoint x="180" y="3570" as="targetPoint"/>
                        <Array as="points">
                            <mxPoint x="180" y="3780"/>
                            <mxPoint x="180" y="3660"/>
                        </Array>
                    </mxGeometry>
                </mxCell>
            </root>
        </mxGraphModel>
    </diagram>
</mxfile>